<svg width="43" height="43" viewBox="0 0 50 50" xmlns="http://www.w3.org/2000/svg">
                                        <mask id="a" maskUnits="userSpaceOnUse" x="16.967" y="19.268" width="16" height="11" fill="#000"><path fill="#fff" d="M16.967 19.268h16v11h-16z"></path><path d="M30.36 20.541l-7.216 6.812-3.463-3.56a.997.997 0 1 0-1.431 1.39l4.153 4.26a1.016 1.016 0 0 0 1.411.03l7.937-7.482c.4-.38.42-1.01.04-1.41-.39-.4-1.021-.42-1.431-.04z"></path></mask><path d="M30.36 20.541l-7.216 6.812-3.463-3.56a.997.997 0 1 0-1.431 1.39l4.153 4.26a1.016 1.016 0 0 0 1.411.03l7.937-7.482c.4-.38.42-1.01.04-1.41-.39-.4-1.021-.42-1.431-.04z" fill="#000"></path><path d="M30.36 20.541l-7.216 6.812-3.463-3.56a.997.997 0 1 0-1.431 1.39l4.153 4.26a1.016 1.016 0 0 0 1.411.03l7.937-7.482c.4-.38.42-1.01.04-1.41-.39-.4-1.021-.42-1.431-.04z" stroke="#000" stroke-width=".8" mask="url(#a)"></path><mask id="b" maskUnits="userSpaceOnUse" x="9.053" y="9.058" width="32" height="32" fill="#000"><path fill="#fff" d="M9.053 9.058h32v32h-32z"></path><path d="M25.005 10.058c-8.247 0-14.952 6.702-14.952 14.944 0 8.243 6.705 14.945 14.952 14.945s14.953-6.702 14.953-14.945c0-8.242-6.706-14.944-14.953-14.944zm0 27.888c-7.146 0-12.95-5.811-12.95-12.944 0-7.132 5.804-12.944 12.95-12.944 7.146 0 12.951 5.802 12.951 12.944 0 7.143-5.805 12.944-12.95 12.944z"></path></mask><path d="M25.005 10.058c-8.247 0-14.952 6.702-14.952 14.944 0 8.243 6.705 14.945 14.952 14.945s14.953-6.702 14.953-14.945c0-8.242-6.706-14.944-14.953-14.944zm0 27.888c-7.146 0-12.95-5.811-12.95-12.944 0-7.132 5.804-12.944 12.95-12.944 7.146 0 12.951 5.802 12.951 12.944 0 7.143-5.805 12.944-12.95 12.944z" fill="#000"></path><path d="M25.005 10.058c-8.247 0-14.952 6.702-14.952 14.944 0 8.243 6.705 14.945 14.952 14.945s14.953-6.702 14.953-14.945c0-8.242-6.706-14.944-14.953-14.944zm0 27.888c-7.146 0-12.95-5.811-12.95-12.944 0-7.132 5.804-12.944 12.95-12.944 7.146 0 12.951 5.802 12.951 12.944 0 7.143-5.805 12.944-12.95 12.944z" stroke="#000" stroke-width=".8" mask="url(#b)"></path><mask id="c" maskUnits="userSpaceOnUse" x="0" y="0" width="50" height="50" fill="#000"><path fill="#fff" d="M0 0h50v50H0z"></path><path d="M45.582 19.5l.33-5.931c.02-.4-.19-.77-.55-.95l-5.284-2.671-2.673-5.282c-.18-.35-.55-.57-.95-.55l-5.945.32-4.955-3.271a1 1 0 0 0-1.1 0L19.5 4.436l-5.934-.33a.999.999 0 0 0-.951.55L9.942 9.938l-5.284 2.67c-.35.18-.57.55-.55.95l.33 5.933-3.273 4.951a1 1 0 0 0 0 1.1l3.263 4.962-.33 5.932c-.02.4.19.77.55.95l5.284 2.671 2.673 5.282c.18.35.55.57.95.55l5.935-.33 4.955 3.27c.17.111.36.171.55.171.19 0 .38-.06.55-.17l4.955-3.271 5.934.33c.4.02.771-.19.951-.55l2.672-5.282 5.285-2.67c.35-.18.57-.55.55-.95l-.33-5.933 3.273-4.951a1 1 0 0 0 0-1.1L45.582 19.5zm-1.861 10.184c-.12.18-.18.39-.16.61l.31 5.612-4.994 2.52c-.19.1-.35.25-.44.44l-2.523 4.992-5.615-.31c-.21-.01-.43.05-.61.16L25.005 46.8l-4.684-3.09a.992.992 0 0 0-.55-.17h-.05l-5.615.31-2.522-4.992a.987.987 0 0 0-.44-.44l-5.005-2.511.31-5.612c.01-.21-.05-.43-.16-.61l-3.092-4.681 3.092-4.682c.12-.18.18-.39.16-.61l-.31-5.612 4.994-2.52c.19-.1.35-.25.44-.44l2.523-4.992 5.615.31c.21.01.43-.05.61-.16l4.684-3.091 4.684 3.09c.18.12.39.18.61.16l5.615-.31 2.522 4.992c.1.19.25.35.44.44l4.995 2.521-.31 5.612c-.01.21.05.43.16.61l3.092 4.681-3.092 4.682z"></path></mask><path d="M45.582 19.5l.33-5.931c.02-.4-.19-.77-.55-.95l-5.284-2.671-2.673-5.282c-.18-.35-.55-.57-.95-.55l-5.945.32-4.955-3.271a1 1 0 0 0-1.1 0L19.5 4.436l-5.934-.33a.999.999 0 0 0-.951.55L9.942 9.938l-5.284 2.67c-.35.18-.57.55-.55.95l.33 5.933-3.273 4.951a1 1 0 0 0 0 1.1l3.263 4.962-.33 5.932c-.02.4.19.77.55.95l5.284 2.671 2.673 5.282c.18.35.55.57.95.55l5.935-.33 4.955 3.27c.17.111.36.171.55.171.19 0 .38-.06.55-.17l4.955-3.271 5.934.33c.4.02.771-.19.951-.55l2.672-5.282 5.285-2.67c.35-.18.57-.55.55-.95l-.33-5.933 3.273-4.951a1 1 0 0 0 0-1.1L45.582 19.5zm-1.861 10.184c-.12.18-.18.39-.16.61l.31 5.612-4.994 2.52c-.19.1-.35.25-.44.44l-2.523 4.992-5.615-.31c-.21-.01-.43.05-.61.16L25.005 46.8l-4.684-3.09a.992.992 0 0 0-.55-.17h-.05l-5.615.31-2.522-4.992a.987.987 0 0 0-.44-.44l-5.005-2.511.31-5.612c.01-.21-.05-.43-.16-.61l-3.092-4.681 3.092-4.682c.12-.18.18-.39.16-.61l-.31-5.612 4.994-2.52c.19-.1.35-.25.44-.44l2.523-4.992 5.615.31c.21.01.43-.05.61-.16l4.684-3.091 4.684 3.09c.18.12.39.18.61.16l5.615-.31 2.522 4.992c.1.19.25.35.44.44l4.995 2.521-.31 5.612c-.01.21.05.43.16.61l3.092 4.681-3.092 4.682z" fill="#000"></path><path d="M45.582 19.5l.33-5.931c.02-.4-.19-.77-.55-.95l-5.284-2.671-2.673-5.282c-.18-.35-.55-.57-.95-.55l-5.945.32-4.955-3.271a1 1 0 0 0-1.1 0L19.5 4.436l-5.934-.33a.999.999 0 0 0-.951.55L9.942 9.938l-5.284 2.67c-.35.18-.57.55-.55.95l.33 5.933-3.273 4.951a1 1 0 0 0 0 1.1l3.263 4.962-.33 5.932c-.02.4.19.77.55.95l5.284 2.671 2.673 5.282c.18.35.55.57.95.55l5.935-.33 4.955 3.27c.17.111.36.171.55.171.19 0 .38-.06.55-.17l4.955-3.271 5.934.33c.4.02.771-.19.951-.55l2.672-5.282 5.285-2.67c.35-.18.57-.55.55-.95l-.33-5.933 3.273-4.951a1 1 0 0 0 0-1.1L45.582 19.5zm-1.861 10.184c-.12.18-.18.39-.16.61l.31 5.612-4.994 2.52c-.19.1-.35.25-.44.44l-2.523 4.992-5.615-.31c-.21-.01-.43.05-.61.16L25.005 46.8l-4.684-3.09a.992.992 0 0 0-.55-.17h-.05l-5.615.31-2.522-4.992a.987.987 0 0 0-.44-.44l-5.005-2.511.31-5.612c.01-.21-.05-.43-.16-.61l-3.092-4.681 3.092-4.682c.12-.18.18-.39.16-.61l-.31-5.612 4.994-2.52c.19-.1.35-.25.44-.44l2.523-4.992 5.615.31c.21.01.43-.05.61-.16l4.684-3.091 4.684 3.09c.18.12.39.18.61.16l5.615-.31 2.522 4.992c.1.19.25.35.44.44l4.995 2.521-.31 5.612c-.01.21.05.43.16.61l3.092 4.681-3.092 4.682z" stroke="#000" stroke-width=".8" mask="url(#c)"></path>
                                    </svg>