<svg width="43" height="43" viewBox="0 0 38 52" xmlns="http://www.w3.org/2000/svg">
                                        <path d="M38 35.778a3.29 3.29 0 0 0-.86-2.182 2.84 2.84 0 0 0-2.027-.926h-5.406V0H12.702v3.957H0l4.619 8.365L0 20.687h20.837V17.07h6.77v11.756H21.31c-1.393.004-2.73.592-3.726 1.64H5.51V52h12.597v-2.091a5.11 5.11 0 0 0 3.254 1.187h11.81c1.311 0 2.519-1.47 2.519-3.109a3.298 3.298 0 0 0-.368-1.526 3.32 3.32 0 0 0 .812-1.14c.19-.44.29-.919.29-1.404a3.288 3.288 0 0 0-.42-1.582 3.131 3.131 0 0 0 1.148-1.86 3.318 3.318 0 0 0-.308-2.21c.359-.29.65-.665.85-1.096.2-.432.305-.908.305-1.39zM14.801 2.261h12.807v12.548H14.8V2.26zm3.937 16.165H3.727l3.411-6.104-3.411-6.105h8.975V17.07h6.036v1.356zm-2.73 31.313H7.663V32.726h8.345V49.74zm17.163-.848h-11.81a3.14 3.14 0 0 1-2.3-1.026 3.646 3.646 0 0 1-.953-2.478v-10.74a3.745 3.745 0 0 1 .232-1.358 3.54 3.54 0 0 1 .702-1.156 3.253 3.253 0 0 1 1.062-.774c.399-.18.826-.272 1.258-.272h6.298v1.583h-3.674c-.278 0-.545.119-.742.33-.197.213-.308.5-.308.8 0 .3.111.587.308.8.197.211.464.33.742.33h11.075c.215 0 .422.093.575.257a.911.911 0 0 1 .238.62.911.911 0 0 1-.238.619.785.785 0 0 1-.575.257h-1.05a1.007 1.007 0 0 0-.758.29 1.17 1.17 0 0 0-.344.784c-.014.3.083.593.27.815.187.223.449.356.727.371h.367c.216 0 .423.093.576.257a.911.911 0 0 1 .238.62.911.911 0 0 1-.238.619.785.785 0 0 1-.575.257h-1.05a1.007 1.007 0 0 0-.758.29c-.207.202-.33.484-.344.784-.014.3.083.593.27.816.187.222.448.355.727.37h.367a.76.76 0 0 1 .557.249.88.88 0 0 1 .23.6 1.14 1.14 0 0 1-.117.477 1.054 1.054 0 0 1-.302.37h-1.365a1.007 1.007 0 0 0-.758.291 1.17 1.17 0 0 0-.344.783c-.014.3.083.593.27.816.187.223.449.356.727.371h.367a.76.76 0 0 1 .557.248c.148.16.23.375.23.6.05.206.042.424-.023.625a1.073 1.073 0 0 1-.344.505z" fill="#000"></path>
                                    </svg>