<svg width="50" height="50" viewBox="0 0 50 50" fill="none" xmlns="http://www.w3.org/2000/svg">
<path d="M46.6 14.2L37 19M37 19L35.8 19.6L25 25M37 19V27.4M37 19L14.2 7M25 25L3.4 14.2M25 25V47.8M33.5872 4.3168L38.3872 6.8368C43.5496 9.5464 46.132 10.9 47.5672 13.336C49 15.7696 49 18.8008 49 24.856V25.1368C49 31.1968 49 34.228 47.5672 36.6616C46.132 39.0976 43.5496 40.4536 38.3872 43.1632L33.5872 45.6808C29.3728 47.8936 27.2656 49 25 49C22.7344 49 20.6272 47.896 16.4128 45.6832L11.6128 43.1632C6.4504 40.4536 3.868 39.1 2.4328 36.664C1 34.2304 1 31.1992 1 25.144V24.8632C1 18.8032 1 15.772 2.4328 13.3384C3.868 10.9024 6.4504 9.5464 11.6128 6.8392L16.4128 4.3192C20.6272 2.1064 22.7344 1 25 1C27.2656 1 29.3728 2.104 33.5872 4.3168Z" stroke="black" stroke-width="1.5" stroke-linecap="round"/>
</svg>
