<svg viewBox="0 0 14 14" width="21" height="21" xmlns="http://www.w3.org/2000/svg">
    <path d="M0 5.453c0-.127.063-.255.157-.319L6.765.096c.157-.128.345-.128.47 0l6.608 5.038c.126.064.157.192.157.32v8.131c0 .224-.157.415-.407.415H.407C.157 14 0 13.809 0 13.585V5.453zm13.217.798L9.271 9.28l3.946 3.412V6.25zm-.689 6.92L8.613 9.79l-1.378 1.02c-.125.127-.313.127-.47 0L5.387 9.79l-3.915 3.38h11.056zM.783 12.693L4.761 9.28.783 6.25v6.443zm12.183-7.24L7.016.893l-5.951 4.56 5.95 4.529 5.951-4.529z" fill="currentColor"></path>
</svg>