<svg viewBox="0 0 13 18" width="21" height="21" xmlns="http://www.w3.org/2000/svg">
    <path d="M6.5 17l.107.105-.107.11-.107-.11L6.5 17zm0 0l-.107.105-.002-.001-.003-.004-.012-.012-.046-.049-.177-.188a30.743 30.743 0 0 1-2.527-3.147C2.25 11.727.85 9.157.85 6.848.85 3.539 3.366.85 6.5.85c3.134 0 5.65 2.69 5.65 5.999 0 2.317-1.4 4.888-2.777 6.861a30.535 30.535 0 0 1-2.703 3.33l-.046.048-.012.012-.004.004L6.5 17zm0-15.494c-2.75 0-5.016 2.395-5.016 5.343 0 1.847 1.011 3.95 2.17 5.745A29.602 29.602 0 0 0 6.5 16.28a29.465 29.465 0 0 0 2.846-3.673c1.159-1.79 2.17-3.893 2.17-5.758 0-2.948-2.265-5.343-5.016-5.343zm0 8.533c-1.663 0-2.992-1.427-2.992-3.172S4.838 3.694 6.5 3.694c1.663 0 2.992 1.428 2.992 3.173s-1.33 3.172-2.992 3.172zm0-.656c1.296 0 2.358-1.115 2.358-2.516 0-1.402-1.062-2.517-2.358-2.517S4.142 5.465 4.142 6.867c0 1.401 1.062 2.516 2.358 2.516z" fill="currentColor" stroke="currentColor" stroke-width=".3"></path>
</svg>