<svg viewBox="0 0 15 15" width="21" height="21" xmlns="http://www.w3.org/2000/svg">
    <path d="M14.398 10.432l-3.107-1.6a1.113 1.113 0 0 0-1.542.574l-.358.891a.284.284 0 0 1-.178.167.298.298 0 0 1-.252-.031 13.611 13.611 0 0 1-2.445-1.95 13.629 13.629 0 0 1-1.95-2.443.296.296 0 0 1 .033-.36.285.285 0 0 1 .104-.07l.892-.358a1.112 1.112 0 0 0 .574-1.542L4.569.603a1.106 1.106 0 0 0-1.09-.598c-.413.041-.82.14-1.209.295a3.583 3.583 0 0 0-1.18.78C-1.06 3.23.07 7.857 3.607 11.394 5.93 13.716 8.72 15 10.973 15c1.179 0 2.21-.352 2.949-1.09.336-.338.6-.739.778-1.18.15-.375.25-.769.293-1.17a1.127 1.127 0 0 0-.595-1.128zm-.43 1.999a2.761 2.761 0 0 1-.605.92c-1.842 1.842-5.968.714-9.198-2.516C.935 7.606-.193 3.48 1.649 1.639c.264-.26.576-.467.92-.606A3.665 3.665 0 0 1 3.591.789a.315.315 0 0 1 .275.176l1.6 3.107a.322.322 0 0 1-.166.447l-.892.358a1.076 1.076 0 0 0-.67 1.134c.02.159.073.31.157.446a14.418 14.418 0 0 0 2.062 2.585c.78.785 1.649 1.477 2.588 2.063a1.089 1.089 0 0 0 1.316-.128 1.08 1.08 0 0 0 .263-.385l.358-.892a.322.322 0 0 1 .447-.166l3.107 1.6a.329.329 0 0 1 .171.336c-.035.33-.115.653-.239.961z" fill="currentColor"></path>
</svg>