<svg width="48" height="48" viewBox="0 0 48 48" fill="none" xmlns="http://www.w3.org/2000/svg">
<path fill-rule="evenodd" clip-rule="evenodd" d="M7.1314 9.30221C7.13095 9.46135 7.08594 9.61718 7.00147 9.75205C6.917 9.88693 6.79645 9.99546 6.65347 10.0653C6.51049 10.1352 6.3508 10.1637 6.19248 10.1475C6.03416 10.1313 5.88353 10.0711 5.75767 9.9737L0.327518 5.75048C0.225505 5.67078 0.142993 5.56889 0.0862433 5.45254C0.0294941 5.33619 0 5.20844 0 5.07899C0 4.94954 0.0294941 4.82179 0.0862433 4.70544C0.142993 4.58909 0.225505 4.4872 0.327518 4.4075L5.75767 0.180871C5.88399 0.0831206 6.03525 0.0228374 6.19418 0.00689751C6.35311 -0.00904239 6.51332 0.0200027 6.65654 0.0907199C6.79976 0.161437 6.92022 0.270979 7.00418 0.406852C7.08814 0.542726 7.13223 0.699459 7.1314 0.859177V3.38152H27.584V0.85236C27.5839 0.692629 27.6288 0.536103 27.7134 0.400636C27.7981 0.26517 27.9191 0.156218 28.0626 0.0862096C28.2062 0.0162009 28.3666 -0.0120458 28.5255 0.00469167C28.6843 0.0214292 28.8353 0.082477 28.9611 0.180871L34.3878 4.40409C34.4899 4.48379 34.5724 4.58568 34.6291 4.70203C34.6859 4.81838 34.7154 4.94613 34.7154 5.07558C34.7154 5.20503 34.6859 5.33278 34.6291 5.44913C34.5724 5.56548 34.4899 5.66737 34.3878 5.74707L28.9611 9.9737C28.835 10.0723 28.6838 10.1334 28.5246 10.15C28.3654 10.1666 28.2048 10.138 28.0611 10.0676C27.9174 9.99719 27.7964 9.88773 27.7121 9.75177C27.6277 9.6158 27.5833 9.45882 27.584 9.2988V6.78327H7.1314V9.30221ZM29.2883 17.009H5.42702C4.97499 17.009 4.54148 17.1885 4.22184 17.5082C3.90221 17.8278 3.72264 18.2613 3.72264 18.7133V42.5733C3.72264 43.0253 3.90221 43.4588 4.22184 43.7784C4.54148 44.098 4.97499 44.2776 5.42702 44.2776H29.2883C29.7404 44.2776 30.1739 44.098 30.4935 43.7784C30.8132 43.4588 30.9927 43.0253 30.9927 42.5733V18.7133C30.9927 18.2613 30.8132 17.8278 30.4935 17.5082C30.1739 17.1885 29.7404 17.009 29.2883 17.009ZM5.42702 13.6004C4.07093 13.6004 2.77039 14.1391 1.81149 15.0979C0.852587 16.0568 0.313883 17.3573 0.313883 18.7133V42.5733C0.313883 43.9293 0.852587 45.2298 1.81149 46.1886C2.77039 47.1475 4.07093 47.6861 5.42702 47.6861H29.2883C30.6444 47.6861 31.945 47.1475 32.9039 46.1886C33.8628 45.2298 34.4015 43.9293 34.4015 42.5733V18.7133C34.4015 17.3573 33.8628 16.0568 32.9039 15.0979C31.945 14.1391 30.6444 13.6004 29.2883 13.6004H5.42702ZM47.1468 20.4176H44.6278V40.869H47.1468C47.306 40.8694 47.4618 40.9145 47.5967 40.9989C47.7316 41.0834 47.8401 41.2039 47.91 41.3469C47.9799 41.4899 48.0084 41.6496 47.9922 41.8079C47.976 41.9662 47.9158 42.1168 47.8184 42.2426L43.5949 47.6725C43.5152 47.7745 43.4133 47.857 43.297 47.9138C43.1806 47.9705 43.0528 48 42.9234 48C42.7939 48 42.6662 47.9705 42.5498 47.9138C42.4335 47.857 42.3316 47.7745 42.2519 47.6725L38.025 42.2426C37.9274 42.1166 37.8672 41.9656 37.8511 41.807C37.835 41.6484 37.8638 41.4885 37.9341 41.3454C38.0044 41.2023 38.1134 41.0818 38.2488 40.9976C38.3842 40.9134 38.5405 40.8688 38.6999 40.869H41.219V20.4176H38.6999C38.5408 20.4171 38.3849 20.3721 38.2501 20.2876C38.1152 20.2032 38.0066 20.0826 37.9367 19.9397C37.8669 19.7967 37.8384 19.637 37.8546 19.4787C37.8708 19.3204 37.931 19.1698 38.0284 19.0439L42.2519 13.6141C42.3316 13.512 42.4335 13.4295 42.5498 13.3728C42.6662 13.316 42.7939 13.2866 42.9234 13.2866C43.0528 13.2866 43.1806 13.316 43.297 13.3728C43.4133 13.4295 43.5152 13.512 43.5949 13.6141L47.8218 19.0439C47.9193 19.17 47.9796 19.3209 47.9957 19.4795C48.0117 19.6382 47.983 19.7981 47.9127 19.9412C47.8424 20.0843 47.7333 20.2048 47.5979 20.289C47.4626 20.3732 47.3063 20.4177 47.1468 20.4176Z" fill="black"/>
</svg>
