<svg width="50" height="50" viewBox="0 0 50 50" fill="none" xmlns="http://www.w3.org/2000/svg">
<path d="M12.9992 13.0046L21.57 21.575M12.9992 13.0046L16.9989 9.00516V8.43381L13.7077 7.06256C11.3422 6.07681 9.12649 4.7644 7.1253 3.16363L4.42834 1.0062H3.85695L1 3.86297V4.43433L3.15757 7.13112C4.75843 9.13219 6.07092 11.3477 7.05673 13.7131L8.42807 17.0041H8.99946L12.9992 13.0046ZM28.9615 36.4302C32.5471 40.4989 35.9897 44.6914 39.2831 49H39.8545L48.9967 39.8583V39.287C48.9967 39.287 43.3514 35.0544 36.4262 28.966M37.5689 23.8604C39.4667 23.8609 41.3348 23.3889 43.0044 22.4868C44.6741 21.5847 46.0928 20.2811 47.1325 18.6935C48.1722 17.106 48.8001 15.2845 48.9596 13.3936C49.1191 11.5026 48.8051 9.6017 48.0459 7.86246H46.7112L39.8545 14.7187H35.2834V10.1479L42.1401 3.29162V1.95693C40.0915 1.06136 37.8252 0.786337 35.6219 1.16592C33.4186 1.5455 31.3751 2.56301 29.7443 4.09243C28.1136 5.62186 26.9674 7.59601 26.4476 9.77038C25.9278 11.9448 26.0572 14.2238 26.82 16.3254L22.7128 20.4323C12.4278 30.7166 1 39.287 1 39.287V39.8583L10.1422 49H10.7136C10.7136 49 19.2845 37.5729 29.5695 27.2885L33.6766 23.1816C34.9247 23.6326 36.2419 23.8623 37.5689 23.8604Z" stroke="black"/>
</svg>
