<svg width="564" height="100" viewBox="0 0 564 100" fill="none" xmlns="http://www.w3.org/2000/svg">
<path fill-rule="evenodd" clip-rule="evenodd" d="M88.1876 0H11.1113V64.6296L49.6584 100L88.1876 64.6296V0ZM20.0323 58.495V11.3404C20.0323 9.48881 21.5349 7.9863 23.3865 7.9863H75.9124C77.7582 7.9863 79.2904 9.48881 79.2904 11.3404V58.495C79.2904 60.3407 78.5213 62.0681 77.1667 63.3222L49.6584 88.5883L22.1501 63.3222C20.7954 62.0681 20.0323 60.3407 20.0323 58.495ZM38.4207 73.1851V13.0622H48.3398V83.0992L38.4207 73.1851ZM23.4844 58.3709V13.1561L33.8041 13.0623V37.6872L38.4187 42.3059V48.0814L33.8041 43.4668V68.6855L23.4844 58.3709ZM75.8082 13.0623V57.362L67.0562 66.1143V43.4648L62.4397 48.0813V42.3057L67.0562 37.6852V16.7608H62.4389V68.6856L52.9549 78.1694V16.7608H52.9512V13.0623H75.8082ZM75.8053 28.8941L72.5456 32.2748L75.8053 35.6628V28.8941Z" fill="#EA2442"/>
<path fill-rule="evenodd" clip-rule="evenodd" d="M418.989 23.6034C418.989 16.6201 422.042 13.9665 426.902 13.9665C431.757 13.9665 434.81 16.6201 434.81 23.6034V76.3968C434.81 83.3802 431.757 86.0338 426.902 86.0338C422.042 86.0338 418.989 83.3802 418.989 76.3968V23.6034ZM403.724 75.4191C403.724 91.0616 411.915 100 426.902 100C441.889 100 450.075 91.0616 450.075 75.4191V24.5811C450.075 8.93858 441.889 0 426.902 0C411.915 0 403.724 8.93858 403.724 24.5811V75.4191ZM396.65 98.8823C395.121 95.251 394.982 91.7596 394.982 87.0106V71.9271C394.982 61.7312 392.485 54.3291 384.855 51.1169C391.651 47.9046 394.843 41.3403 394.843 31.2844V23.6028C394.843 8.51901 388.047 1.11674 372.226 1.11674H349.19V98.8823H364.456V59.0776H369.729C376.664 59.0776 379.717 62.4296 379.717 71.508V86.8712C379.717 94.6963 380.253 96.3142 381.063 98.7545L381.107 98.8823H396.65ZM371.809 15.0832C377.22 15.0832 379.578 18.1559 379.578 25.1391V34.776C379.578 42.5973 376.113 45.1113 370.423 45.1113H364.456V15.0832H371.809ZM489.759 76.3968V62.4301H504.195V75.4191C504.195 91.0616 496.421 100 481.434 100C466.447 100 458.678 91.0616 458.678 75.4191V24.5811C458.678 8.93858 466.447 0 481.434 0C496.421 0 504.195 8.93858 504.195 24.5811V34.0783H489.759V23.6034C489.759 16.6201 486.706 13.9665 481.851 13.9665C476.996 13.9665 473.943 16.6201 473.943 23.6034V76.3968C473.943 83.3802 476.996 85.8939 481.851 85.8939C486.706 85.8939 489.759 83.3802 489.759 76.3968ZM548.323 98.8761H564L542.768 44.6862L564 1.11071H548.735L528.754 43.7086V1.11071H513.489V98.8761H528.754V68.8481L533.475 59.9097L548.323 98.8761ZM135.265 57.4139H152.611V99.3131H168.153V1.54765H152.611V43.4472H135.265V1.54765H120V99.3131H135.265V57.4139ZM194.518 15.5143H220.884V1.54783H179.254V99.3136H220.884V85.3469H194.518V56.7154H215.472V42.749H194.518V15.5143ZM241.839 1.54783H264.181L279.724 99.3136H264.32L261.683 81.5761H242.95L240.313 99.3136H226.297L241.839 1.54783ZM259.602 68.3079L252.247 18.8663L244.892 68.3079H259.602ZM286.802 99.3136H310.948C326.213 99.3136 333.706 90.7938 333.706 75.1513V25.7099C333.706 10.0674 326.213 1.54783 310.948 1.54783H286.802V99.3136ZM310.671 15.5143C315.528 15.5143 318.442 18.0283 318.442 25.0116V75.8498C318.442 82.8327 315.528 85.3469 310.671 85.3469H302.067V15.5143H310.671Z" fill="black"/>
</svg>
