<svg xmlns="http://www.w3.org/2000/svg" width="81" height="26" viewBox="0 0 81 26" fill="none">
    <path d="M80.8912 5.51562H76.9863V21.2689H80.8912V5.51562Z" fill="#307161"/>
    <path d="M69.483 12.0043L75.3888 21.2686H70.7152L66.8062 15.126L64.9108 17.3362V21.2686H61.0059V5.51587H64.9108V12.4369L70.5234 5.51587H75.047L69.483 12.0043Z" fill="#307161"/>
    <path d="M44.2305 5.51514H47.6662L54.4733 15.0868V5.51514H58.0793V21.2684H54.665L47.8794 11.7657V21.2684H44.2305V5.51514Z" fill="#307161"/>
    <path d="M29.8262 5.51538H41.6267V8.75169H33.7311V11.7629H40.8585V14.976H33.7311V18.0324H41.8398V21.2687H29.8262V5.51538Z" fill="#307161"/>
    <path fill-rule="evenodd" clip-rule="evenodd" d="M9.83519 6.60602L0.892578 8.70215V5.57462L9.83519 0.88208L23.0203 5.57462V8.70215L9.83519 6.60602ZM9.83519 25.9024L23.0203 21.0994V18.0971L9.83519 20.052L0.892578 18.0971V21.0994L9.83519 25.9024ZM9.83519 17.4488L17.4347 15.674V11.095L9.83519 9.32766L0.892578 11.095V15.674L9.83519 17.4488Z" fill="#307161"/>
</svg>