<svg xmlns="http://www.w3.org/2000/svg" width="164" height="51" viewBox="0 0 164 51" fill="none">
    <path d="M162.392 46.4287C162.392 45.514 162.354 44.9043 162.239 44.5232C162.125 44.142 161.896 43.9515 161.553 43.9515C161.21 43.9515 160.982 44.142 160.829 44.5232C160.715 44.9043 160.639 45.5522 160.639 46.4668C160.639 47.4196 160.715 48.0675 160.829 48.4867C160.943 48.8678 161.172 49.0965 161.515 49.0965C161.858 49.0965 162.087 48.8678 162.201 48.4867C162.315 48.0675 162.392 47.3815 162.392 46.4287ZM162.354 39.2257H163.726V50.1636H162.392V49.2108H162.354C162.011 49.9349 161.553 50.2779 160.943 50.2779C160.6 50.2779 160.257 50.1636 159.953 49.9349C159.648 49.7063 159.457 49.3633 159.343 48.944C159.228 48.5248 159.152 47.8007 159.152 46.8098C159.152 45.6665 159.19 44.8662 159.305 44.3707C159.419 43.8753 159.61 43.4942 159.876 43.2274C160.143 42.9606 160.524 42.8082 160.943 42.8082C161.515 42.8082 161.972 43.1512 162.277 43.7609H162.315V39.2257H162.354ZM151.301 50.1636H149.929V4.73512L151.301 4.354V50.1636ZM140.554 42.9225H141.888V50.1636H140.554V42.9225ZM140.478 40.712C140.478 40.5215 140.554 40.3309 140.706 40.1785C140.859 40.026 141.011 39.9498 141.24 39.9498C141.431 39.9498 141.621 40.026 141.774 40.1785C141.926 40.3309 142.002 40.4834 142.002 40.712C142.002 40.9026 141.926 41.0931 141.774 41.2456C141.621 41.398 141.469 41.4743 141.24 41.4743C141.011 41.4743 140.859 41.398 140.706 41.2456C140.554 41.0931 140.478 40.9026 140.478 40.712ZM132.474 47.8769C132.474 48.7154 132.322 49.3252 131.979 49.7063C131.636 50.0874 131.102 50.2779 130.302 50.2779C129.54 50.2779 128.968 50.0874 128.625 49.7444C128.282 49.3633 128.092 48.7916 128.092 47.9913V42.9225H129.426V47.9913C129.426 48.7916 129.73 49.2108 130.302 49.2108C130.607 49.2108 130.836 49.0965 130.95 48.9059C131.064 48.7154 131.141 48.3724 131.141 47.8769V42.9225H132.474V47.8769ZM118.831 46.8098C118.831 45.7808 118.754 45.0567 118.64 44.5994C118.526 44.1802 118.259 43.9515 117.916 43.9515C117.611 43.9515 117.382 44.142 117.268 44.485C117.154 44.828 117.078 45.3997 117.078 46.2C117.078 47.2672 117.154 47.9913 117.268 48.4486C117.382 48.9059 117.611 49.1346 117.992 49.1346C118.297 49.1346 118.526 48.944 118.678 48.601C118.793 48.1818 118.831 47.6102 118.831 46.8098ZM115.744 39.2257H117.116V43.8753H117.154C117.421 43.1511 117.878 42.77 118.564 42.77C119.059 42.77 119.479 42.9987 119.822 43.4942C120.165 43.9515 120.317 44.9043 120.317 46.2382C120.317 47.915 120.165 48.9822 119.86 49.4776C119.555 49.973 119.097 50.2398 118.488 50.2398C117.916 50.2398 117.459 49.8587 117.116 49.1346H117.078V50.1255H115.744V39.2257Z" fill="black"/>
    <path d="M116.315 37.9297V12.3571L122.794 9.46067L130.264 12.8526V21.5038L132.779 21.5419L132.97 5.99256L143.298 1L150.997 5.03978" stroke="black" stroke-width="1.5" stroke-miterlimit="22.926"/>
    <path d="M122.909 9.91797V39.6828" stroke="black" stroke-miterlimit="22.926"/>
    <path d="M143.412 1.64795V35.8718" stroke="black" stroke-miterlimit="22.926"/>
    <path d="M158.313 13.4243V36.1004" stroke="black" stroke-miterlimit="22.926"/>
    <path d="M152.025 16.74L158.123 12.7002L163.001 17.1592V38.0822" stroke="black" stroke-width="1.5" stroke-miterlimit="22.926"/>
    <path d="M108.198 49.4012H104.768L96.4974 27.1824H96.4212V49.4012H92.4958V17.0449H95.9639L104.234 39.2637H104.31V17.0449H108.159V49.4012H108.198ZM72.678 33.3564C72.678 27.2205 72.2968 23.4094 71.6108 21.9612C70.8867 20.513 69.8196 19.7889 68.3714 19.7889C66.6945 19.7889 65.5131 20.6654 64.9033 22.3804C64.2554 24.1335 63.9505 27.03 63.9505 31.146V32.9372C63.9505 37.5487 64.2173 40.8643 64.7127 42.9986C65.2082 45.0947 66.4277 46.1618 68.3714 46.1618C69.5528 46.1618 70.5818 45.5901 71.4203 44.3706C72.2587 43.1891 72.678 39.9115 72.678 34.5379V33.3564ZM59.3391 33.1278C59.3391 26.1153 60.0251 21.542 61.3971 19.484C62.7691 17.426 65.0557 16.397 68.219 16.397C71.8395 16.397 74.2405 17.5403 75.4601 19.8651C76.6415 22.1899 77.2513 26.344 77.2513 32.3655C77.2513 37.7392 76.9845 41.4741 76.451 43.5702C75.9174 45.6663 75.0027 47.1908 73.6688 48.1817C72.335 49.1726 70.5818 49.6299 68.3333 49.6299C66.0085 49.6299 64.2173 49.1726 62.9977 48.296C61.7401 47.3813 60.8254 45.9331 60.2537 43.8751C59.6439 41.8171 59.3391 38.2347 59.3391 33.1278ZM35.4053 31.2222C37.1203 31.1841 38.3398 30.803 39.0639 30.0026C39.8261 29.2404 40.2073 27.8303 40.2073 25.8104C40.2073 23.8668 39.8643 22.4566 39.1783 21.6563C38.4923 20.8179 37.3108 20.3986 35.672 20.3986H35.4053V31.2222ZM45.3904 49.4012H40.8551L35.7864 34.1949H35.4053V49.4012H31.0225V17.0449H37.0821C41.9985 17.0449 44.4757 19.7889 44.4757 25.315C44.4757 27.8303 44.0946 29.6978 43.3705 30.9935C42.6464 32.2512 41.4649 33.204 39.8261 33.8519L45.3904 49.4012ZM16.5783 49.4012H11.5477L4.53523 32.9753H4.42089V49.4012H0V17.0449H4.42089V33.0897H4.53523L12.0812 17.0449H16.5021L8.65123 32.7467L16.5783 49.4012Z" fill="#FDCF08"/>
</svg>