<svg width="78" height="271" viewBox="0 0 78 271" fill="none" xmlns="http://www.w3.org/2000/svg">
<path d="M0.464905 84.7251L0.464905 55.0251L18.6149 43.8051L0.464905 32.5851L0.464905 2.55513L37.2049 27.5251L77.5749 0.245132V30.8251L57.6649 43.8051L77.5749 56.5651V86.3751L38.4149 59.3151L0.464905 84.7251Z" fill="white"/>
<path d="M77.5749 171.559H0.57489L0.57489 132.509C0.57489 122.976 2.33489 115.606 5.85489 110.399C9.37489 105.119 14.3249 102.479 20.7049 102.479C26.9382 102.479 31.8882 104.899 35.5549 109.739C39.1482 114.579 40.9449 121.106 40.9449 129.319L35.0049 127.119C35.0049 118.392 36.7282 111.536 40.1749 106.549C43.6216 101.562 48.6449 99.069 55.2449 99.069C62.0649 99.069 67.4916 101.782 71.5249 107.209C75.5582 112.636 77.5749 120.372 77.5749 130.419V171.559ZM59.4249 146.039V131.629C59.4249 129.502 58.9116 127.926 57.8849 126.899C56.7849 125.799 55.2449 125.249 53.2649 125.249C51.2849 125.249 49.8182 125.799 48.8649 126.899C47.8382 127.926 47.3249 129.502 47.3249 131.629V146.039H59.4249ZM30.1649 146.039L30.1649 135.039C30.1649 132.839 29.6882 131.226 28.7349 130.199C27.7816 129.172 26.3882 128.659 24.5549 128.659C22.6482 128.659 21.2182 129.172 20.2649 130.199C19.2382 131.226 18.7249 132.839 18.7249 135.039L18.7249 146.039H30.1649Z" fill="white"/>
<path d="M77.5749 270.645H0.57489L0.57489 196.175H77.5749V221.695H15.2049L20.7049 216.085L20.7049 250.735L15.2049 245.125H77.5749V270.645Z" fill="white"/>
</svg>
