<svg width="81" height="655" viewBox="0 0 81 655" fill="none" xmlns="http://www.w3.org/2000/svg">
<path d="M1.76 578.402H78.76V603.922H38.72L78.76 630.432V654.852H1.76V629.332H41.69L1.76 602.932V578.402Z" fill="black"/>
<path d="M1.76 532.847L37.84 513.707L49.94 534.387L1.76 562.107V532.847ZM1.76 484.887H78.76V510.847H1.76V484.887ZM29.59 503.367H50.05V532.517H29.59V503.367ZM37.51 536.917L39.93 513.047L78.76 535.157V562.217L37.51 536.917Z" fill="black"/>
<path d="M0.330002 391.536C0.330002 389.923 0.440002 388.2 0.660004 386.366C0.880005 384.533 1.24667 382.59 1.76 380.536L22.55 381.856C22.33 382.883 22.22 383.836 22.22 384.716C22.22 387.576 23.3933 389.703 25.74 391.096C28.0867 392.49 31.24 393.443 35.2 393.956C39.2333 394.47 43.7433 394.8 48.73 394.946L78.76 395.936V460.946H1.76V435.426H64.13L58.63 441.036V412.986L64.46 418.046L49.72 417.606C42.3133 417.386 35.5667 416.873 29.48 416.066C23.4667 415.333 18.26 414.05 13.86 412.216C9.53333 410.383 6.19666 407.78 3.85 404.406C1.50333 401.106 0.330002 396.816 0.330002 391.536Z" fill="black"/>
<path d="M1.52588e-05 324.172C1.52588e-05 317.938 0.990013 312.145 2.97002 306.792C4.95002 301.512 7.73669 296.928 11.33 293.042C14.9967 289.155 19.2867 286.112 24.2 283.912C29.1134 281.785 34.4667 280.722 40.26 280.722C46.1267 280.722 51.48 281.785 56.32 283.912C61.2334 286.112 65.4867 289.155 69.08 293.042C72.7467 296.928 75.57 301.512 77.55 306.792C79.53 312.145 80.52 317.938 80.52 324.172C80.52 330.478 79.53 336.272 77.55 341.552C75.57 346.832 72.7467 351.415 69.08 355.302C65.4867 359.188 61.2334 362.195 56.32 364.322C51.48 366.522 46.1267 367.622 40.26 367.622C34.4667 367.622 29.1134 366.522 24.2 364.322C19.2867 362.195 14.9967 359.188 11.33 355.302C7.73669 351.415 4.95002 346.832 2.97002 341.552C0.990013 336.272 1.52588e-05 330.478 1.52588e-05 324.172ZM21.01 324.172C21.01 326.592 21.45 328.828 22.33 330.882C23.21 333.008 24.4567 334.842 26.07 336.382C27.7567 337.995 29.7733 339.242 32.12 340.122C34.54 341.002 37.2533 341.442 40.26 341.442C43.2667 341.442 45.9434 341.002 48.29 340.122C50.71 339.242 52.7267 337.995 54.34 336.382C56.0267 334.842 57.31 333.008 58.19 330.882C59.07 328.828 59.51 326.592 59.51 324.172C59.51 321.752 59.07 319.478 58.19 317.352C57.31 315.298 56.0267 313.465 54.34 311.852C52.7267 310.312 50.71 309.102 48.29 308.222C45.9434 307.342 43.2667 306.902 40.26 306.902C37.2533 306.902 34.54 307.342 32.12 308.222C29.7733 309.102 27.7567 310.312 26.07 311.852C24.4567 313.465 23.21 315.298 22.33 317.352C21.45 319.478 21.01 321.752 21.01 324.172Z" fill="black"/>
<path d="M1.76 218.455H64.24L58.63 224.065V195.905H78.76V266.525H58.63V238.365L64.24 243.975H1.76V218.455Z" fill="black"/>
<path d="M1.52588e-05 138.246C1.52588e-05 132.013 0.990013 126.219 2.97002 120.866C4.95002 115.586 7.73669 111.003 11.33 107.116C14.9967 103.229 19.2867 100.186 24.2 97.9859C29.1134 95.8593 34.4667 94.7959 40.26 94.7959C46.1267 94.7959 51.48 95.8593 56.32 97.9859C61.2334 100.186 65.4867 103.229 69.08 107.116C72.7467 111.003 75.57 115.586 77.55 120.866C79.53 126.219 80.52 132.013 80.52 138.246C80.52 144.553 79.53 150.346 77.55 155.626C75.57 160.906 72.7467 165.489 69.08 169.376C65.4867 173.263 61.2334 176.269 56.32 178.396C51.48 180.596 46.1267 181.696 40.26 181.696C34.4667 181.696 29.1134 180.596 24.2 178.396C19.2867 176.269 14.9967 173.263 11.33 169.376C7.73669 165.489 4.95002 160.906 2.97002 155.626C0.990013 150.346 1.52588e-05 144.553 1.52588e-05 138.246ZM21.01 138.246C21.01 140.666 21.45 142.903 22.33 144.956C23.21 147.083 24.4567 148.916 26.07 150.456C27.7567 152.069 29.7733 153.316 32.12 154.196C34.54 155.076 37.2533 155.516 40.26 155.516C43.2667 155.516 45.9434 155.076 48.29 154.196C50.71 153.316 52.7267 152.069 54.34 150.456C56.0267 148.916 57.31 147.083 58.19 144.956C59.07 142.903 59.51 140.666 59.51 138.246C59.51 135.826 59.07 133.553 58.19 131.426C57.31 129.373 56.0267 127.539 54.34 125.926C52.7267 124.386 50.71 123.176 48.29 122.296C45.9434 121.416 43.2667 120.976 40.26 120.976C37.2533 120.976 34.54 121.416 32.12 122.296C29.7733 123.176 27.7567 124.386 26.07 125.926C24.4567 127.539 23.21 129.373 22.33 131.426C21.45 133.553 21.01 135.826 21.01 138.246Z" fill="black"/>
<path d="M1.76 0L78.76 0V74.47H1.76V48.95L64.13 48.95L58.63 54.56V19.91L64.13 25.52L1.76 25.52V0Z" fill="black"/>
</svg>
