<svg width="651" height="783" viewBox="0 0 651 783" fill="none" xmlns="http://www.w3.org/2000/svg">
<path d="M606.678 138.183C598.852 130.355 598.852 117.744 606.678 110.024C614.505 102.197 627.115 102.197 634.833 110.024L638.094 113.286L664.944 140.14L822.13 297.24C829.957 305.068 829.957 317.679 822.13 325.398C814.303 333.117 801.694 333.226 793.976 325.398L665.052 196.457L609.939 141.336L606.678 138.183Z" fill="#FFD600"/>
<path d="M215.343 536.097L180.993 501.742C173.166 493.914 173.166 481.303 180.993 473.583C188.819 465.756 201.429 465.756 209.147 473.583L243.498 507.939L261.325 525.769C269.152 533.597 281.761 533.597 289.479 525.769C297.306 517.941 297.306 505.33 289.479 497.611L159.252 367.364C151.425 359.536 151.425 346.925 159.252 339.206C167.078 331.378 179.688 331.378 187.406 339.206L203.168 354.97L296.763 448.578L299.806 451.622L390.357 542.186C398.184 550.013 410.793 550.013 418.511 542.186C426.338 534.358 426.338 521.746 418.511 514.027L238.606 334.096C230.779 326.268 230.779 313.657 238.606 305.938C246.433 298.11 259.042 298.11 266.76 305.938L329.591 368.56L356.224 395.088L516.889 555.776C524.715 563.603 537.325 563.603 545.043 555.776C552.87 547.948 552.87 535.336 545.043 527.617L384.487 366.929L211.43 193.847C203.603 186.02 203.603 173.408 211.43 165.689C219.257 157.861 231.866 157.861 239.584 165.689L332.635 258.753L519.824 445.969C527.65 453.796 540.26 453.796 547.978 445.969C555.805 438.141 555.805 425.529 547.978 417.81L440.796 310.612L435.904 305.72L432.643 302.459C424.816 294.631 424.816 282.019 432.643 274.3C440.47 266.472 453.079 266.472 460.797 274.3L465.58 279.084L578.85 392.152C586.677 399.98 599.286 399.98 607.004 392.152C614.831 384.325 614.831 371.713 607.004 363.994L497.213 254.187L400.575 157.535C392.748 149.707 392.748 137.096 400.575 129.377C408.402 121.549 421.012 121.549 428.73 129.377L525.368 226.028L569.501 270.169C577.328 277.997 589.938 277.997 597.656 270.169C605.483 262.341 605.483 249.729 597.656 242.01L410.359 54.5773L389.813 34.0293C381.987 26.2015 381.987 13.59 389.813 5.87087C397.64 -1.95696 410.25 -1.95696 417.968 5.87087L521.237 109.155L665.052 252.882V629.923H365.464L396.336 660.799C404.162 668.627 404.162 681.238 396.336 688.957C388.509 696.785 375.899 696.785 368.181 688.957L309.046 629.814H308.503C307.742 628.727 306.872 627.639 305.894 626.661L215.343 536.097Z" fill="#FFD600"/>
<path d="M5.87017 524.03C13.6969 516.202 26.3065 516.202 34.0245 524.03L130.663 620.682L139.902 629.923L221.322 711.354C229.149 719.182 229.149 731.793 221.322 739.512C213.495 747.34 200.885 747.34 193.167 739.512L5.87017 552.188C-1.95653 544.36 -1.95653 531.749 5.87017 524.03Z" fill="#FFD600"/>
<path d="M156.208 589.805C148.381 581.977 148.381 569.366 156.208 561.647C164.035 553.819 176.644 553.819 184.362 561.647L187.08 564.364L277.631 654.928L371.66 748.971C379.486 756.799 379.486 769.41 371.66 777.129C363.833 784.957 351.223 784.957 343.505 777.129L249.476 683.087L156.208 589.805Z" fill="#FFD600"/>
</svg>
