<svg width="282" height="598" viewBox="0 0 282 598" fill="none" xmlns="http://www.w3.org/2000/svg">
<path d="M117.372 188.567L143.633 214.805C149.616 220.783 149.616 230.415 143.633 236.31C137.649 242.289 128.009 242.289 122.109 236.31L95.848 210.072L82.219 196.455C76.2356 190.477 66.5956 190.477 60.6952 196.455C54.7117 202.433 54.7117 212.065 60.6952 217.96L160.253 317.433C166.237 323.412 166.237 333.043 160.253 338.939C154.27 344.917 144.63 344.917 138.729 338.939L126.679 326.899L55.1273 255.408L52.8004 253.083L-16.4249 183.917C-22.4084 177.939 -32.0484 177.939 -37.9488 183.917C-43.9322 189.895 -43.9322 199.527 -37.9488 205.422L99.5877 342.841C105.571 348.82 105.571 358.451 99.5877 364.347C93.6042 370.325 83.9642 370.325 78.0638 364.347L30.03 316.52L9.66959 296.26L-113.158 173.538C-119.141 167.56 -128.781 167.56 -134.681 173.538C-140.665 179.516 -140.665 189.148 -134.681 195.043L-11.9373 317.765L120.364 449.953C126.347 455.931 126.347 465.563 120.364 471.459C114.38 477.437 104.74 477.437 98.8398 471.459L27.7031 400.383L-115.401 257.401C-121.385 251.422 -131.025 251.422 -136.925 257.401C-142.909 263.379 -142.909 273.011 -136.925 278.906L-54.985 360.776L-51.2453 364.513L-48.7522 367.004C-42.7688 372.982 -42.7688 382.614 -48.7522 388.509C-54.7357 394.487 -64.3757 394.487 -70.2761 388.509L-73.9326 384.856L-160.527 298.502C-166.51 292.523 -176.15 292.523 -182.05 298.502C-188.034 304.48 -188.034 314.112 -182.05 320.007L-98.1158 403.87L-24.2367 477.686C-18.2532 483.664 -18.2532 493.296 -24.2367 499.191C-30.2201 505.17 -39.8602 505.17 -45.7605 499.191L-119.64 425.375L-153.38 391.664C-159.363 385.686 -169.003 385.686 -174.904 391.664C-180.887 397.643 -180.887 407.274 -174.904 413.17L-31.716 556.318L-16.0094 572.011C-10.026 577.989 -10.026 587.621 -16.0094 593.516C-21.9929 599.495 -31.6329 599.495 -37.5332 593.516L-116.482 514.635L-226.428 404.866V116.91H2.60579L-20.9956 93.3286C-26.9791 87.3503 -26.9791 77.7184 -20.9956 71.8231C-15.0122 65.8448 -5.37216 65.8448 0.528198 71.8231L45.7365 116.993H46.1521C46.7338 117.823 47.3986 118.653 48.1465 119.401L117.372 188.567Z" fill="#FFD600"/>
<path d="M277.512 197.783C271.529 203.762 261.889 203.762 255.989 197.783L182.109 123.967L175.046 116.91L112.801 54.7183C106.818 48.74 106.818 39.1082 112.801 33.2129C118.785 27.2345 128.425 27.2345 134.325 33.2129L277.512 176.278C283.496 182.256 283.496 191.888 277.512 197.783Z" fill="#FFD600"/>
<path d="M162.58 147.549C168.564 153.527 168.564 163.159 162.58 169.054C156.597 175.033 146.957 175.033 141.056 169.054L138.979 166.978L69.7535 97.8123L-2.13106 25.9892C-8.11452 20.0108 -8.11452 10.3791 -2.13106 4.48378C3.8524 -1.49455 13.4924 -1.49455 19.3928 4.48378L91.2774 76.3069L162.58 147.549Z" fill="#FFD600"/>
</svg>
