<svg width="42" height="42" viewBox="0 0 56 56" xmlns="http://www.w3.org/2000/svg">
    <path d="M37.972 18.03A14.01 14.01 0 0 0 28 13.897c-7.775 0-14.102 6.327-14.102 14.102 0 7.776 6.327 14.102 14.102 14.102 7.777 0 14.104-6.326 14.104-14.102 0-3.766-1.467-7.308-4.13-9.97zM28 38.83c-5.972 0-10.83-4.857-10.83-10.83 0-5.972 4.858-10.83 10.83-10.83 2.893 0 5.613 1.128 7.659 3.173A10.757 10.757 0 0 1 38.83 28c0 5.973-4.858 10.83-10.831 10.83zm-.001-27.976c.903 0 1.636-.733 1.636-1.637v-7.58a1.637 1.637 0 0 0-3.272 0v7.58c0 .903.733 1.637 1.636 1.637zm0 34.293c-.903 0-1.636.733-1.636 1.636v7.58a1.637 1.637 0 0 0 3.272 0v-7.58c0-.904-.733-1.636-1.636-1.636zm26.365-18.784h-7.58a1.637 1.637 0 0 0 0 3.273h7.58a1.637 1.637 0 0 0 0-3.273zM10.852 28c0-.904-.733-1.637-1.636-1.637h-7.58a1.637 1.637 0 0 0 0 3.273h7.58c.903 0 1.636-.733 1.636-1.636zm30.43-11.646c.419 0 .838-.16 1.158-.48l5.359-5.36a1.635 1.635 0 1 0-2.314-2.313l-5.36 5.36a1.635 1.635 0 0 0 1.157 2.793zM13.561 40.125l-5.359 5.361a1.635 1.635 0 1 0 2.315 2.314l5.359-5.361a1.635 1.635 0 1 0-2.315-2.314zm28.879 0a1.635 1.635 0 1 0-2.314 2.313l5.359 5.362c.32.32.739.479 1.157.479a1.635 1.635 0 0 0 1.157-2.793l-5.36-5.361zM13.561 15.874c.32.32.739.479 1.158.479a1.635 1.635 0 0 0 1.157-2.792l-5.36-5.36a1.635 1.635 0 1 0-2.313 2.313l5.358 5.36z" fill="#000"></path>
</svg>