<svg width="42" height="42" viewBox="0 0 49 56" xmlns="http://www.w3.org/2000/svg">
    <path d="M48.506 45.96l-4.382-2.522a2.77 2.77 0 0 0-1.982-3.42v-4.442a2.77 2.77 0 0 0 2.084-2.677 2.772 2.772 0 0 0-4.753-1.932l-3.863-2.223a2.745 2.745 0 0 0 0-1.487l3.862-2.223a2.771 2.771 0 0 0 4.755-1.93 2.77 2.77 0 0 0-2.085-2.678v-4.442a2.77 2.77 0 0 0 2.084-2.677c0-.258-.036-.507-.102-.744l4.382-2.523c.33-.19.443-.61.253-.939a.69.69 0 0 0-.942-.251l-4.384 2.524a2.77 2.77 0 0 0-3.539-.351l-.017.012a2.853 2.853 0 0 0-.162.12l-.028.022a2.857 2.857 0 0 0-.097.084v.001a2.92 2.92 0 0 0-.118.111L35.611 9.15c.033-.118.058-.239.075-.362l.002-.015c.007-.052.012-.105.016-.158l.003-.033c.004-.057.006-.115.006-.174v-.004c0-.07-.004-.14-.01-.209L35.7 8.15a2.824 2.824 0 0 0-.024-.192l-.01-.055a2.832 2.832 0 0 0-.04-.182l-.014-.048a2.827 2.827 0 0 0-.044-.144l-.02-.062a2.724 2.724 0 0 0-.162-.359l-.047-.083a2.685 2.685 0 0 0-.416-.545 2.72 2.72 0 0 0-.182-.17l-.05-.042a2.745 2.745 0 0 0-.09-.071l-.03-.022a2.856 2.856 0 0 0-.177-.118l-.045-.027a2.77 2.77 0 0 0-.18-.098l-.04-.02a2.74 2.74 0 0 0-.353-.138l-.04-.012c-.035-.01-.07-.023-.107-.032V.687a.688.688 0 0 0-1.378 0v5.045a2.77 2.77 0 0 0-2.085 2.676c0 .257.037.506.103.742l-3.862 2.224a2.77 2.77 0 0 0-1.98-.83 2.77 2.77 0 0 0-1.98.83L18.585 9.15c.066-.236.102-.485.102-.742a2.77 2.77 0 0 0-2.085-2.676V.687a.688.688 0 0 0-1.378 0V5.73c-.037.009-.072.021-.108.032l-.039.012c-.122.038-.24.085-.353.139l-.04.019a2.745 2.745 0 0 0-.406.246l-.025.018a2.947 2.947 0 0 0-.091.072l-.049.04a2.78 2.78 0 0 0-.807 1.16c-.008.02-.014.04-.021.061a3.028 3.028 0 0 0-.045.144c-.004.016-.01.032-.013.048a2.18 2.18 0 0 0-.04.182l-.01.055a2.76 2.76 0 0 0-.025.192l-.003.045a2.766 2.766 0 0 0-.01.209v.004c0 .059.003.116.007.174l.002.034c.004.052.01.104.016.155l.002.017c.018.124.043.244.076.362l-3.863 2.224-.002-.001a2.773 2.773 0 0 0-3.536-.352l-.052.036-.053.038a2.82 2.82 0 0 0-.1.079l-.002.001a2.784 2.784 0 0 0-.218.198L1.035 8.85a.69.69 0 0 0-.942.25.685.685 0 0 0 .252.94l4.382 2.523a2.748 2.748 0 0 0-.102.744 2.77 2.77 0 0 0 2.084 2.676v4.442a2.77 2.77 0 0 0-2.084 2.678 2.771 2.771 0 0 0 2.773 2.763c.74 0 1.436-.288 1.961-.81l.022-.023 3.862 2.224a2.741 2.741 0 0 0 0 1.487L9.38 30.966l-.021-.022a2.763 2.763 0 0 0-1.961-.808 2.771 2.771 0 0 0-2.774 2.763 2.77 2.77 0 0 0 2.085 2.677v4.442a2.77 2.77 0 0 0-2.085 2.677c0 .257.037.507.103.743L.345 45.96a.686.686 0 0 0-.252.939.69.69 0 0 0 .941.25l4.382-2.52c.07.07.142.135.218.198l.007.005.095.074c.019.015.039.028.058.042.016.011.031.023.047.033a2.772 2.772 0 0 0 3.539-.353l3.862 2.222-.005.02a2.795 2.795 0 0 0-.069.333l-.005.04a2.99 2.99 0 0 0-.013.133l-.004.047a2.698 2.698 0 0 0 .003.387l.003.037c.007.068.015.135.026.201l.008.041c.012.067.026.133.043.198l.006.021c.016.06.034.119.054.177l.014.04a2.81 2.81 0 0 0 .175.388l.026.045c.024.042.05.083.075.124l.034.052a2.687 2.687 0 0 0 .25.316l.057.06a2.822 2.822 0 0 0 .757.554l.05.025a2.756 2.756 0 0 0 .39.15c.036.01.07.022.107.031v5.043a.688.688 0 0 0 1.379 0V50.27a2.768 2.768 0 0 0 2.084-2.675c0-.258-.036-.507-.103-.744l1.929-1.112 1.933-1.11a2.77 2.77 0 0 0 1.981.831 2.77 2.77 0 0 0 1.98-.831l3.863 2.222a2.749 2.749 0 0 0-.103.744c0 1.285.887 2.368 2.084 2.674v5.045a.689.689 0 1 0 1.379 0V50.27c.036-.009.07-.021.106-.032l.041-.012c.12-.038.237-.084.35-.137l.05-.025a2.811 2.811 0 0 0 .757-.554l.057-.06a2.73 2.73 0 0 0 .25-.317l.033-.05c.026-.042.052-.084.076-.126l.026-.044c.03-.053.056-.108.082-.163l.023-.05a2.7 2.7 0 0 0 .07-.174l.013-.04c.02-.059.039-.118.055-.178l.006-.02a2.73 2.73 0 0 0 .043-.199l.007-.04a2.72 2.72 0 0 0 .026-.202c.002-.012.002-.025.003-.038a2.771 2.771 0 0 0 .003-.387l-.003-.045a2.958 2.958 0 0 0-.014-.135l-.005-.039a2.728 2.728 0 0 0-.07-.335c0-.006-.002-.012-.004-.018l3.861-2.221c.038.038.078.075.118.111l.002.002c.031.029.063.056.096.083l.028.022a2.53 2.53 0 0 0 .159.118l.02.015a2.77 2.77 0 0 0 3.54-.352l4.383 2.522a.687.687 0 1 0 .688-1.19zm-5.658-3.265a1.377 1.377 0 0 1-.28.832l-.017.023a1.405 1.405 0 0 1-.25.246l-.004.003a1.407 1.407 0 0 1-.474.235l-.02.005a1.362 1.362 0 0 1-.145.03l-.034.005a1.376 1.376 0 0 1-.342 0l-.038-.006a1.4 1.4 0 0 1-.134-.027c-.012-.003-.023-.005-.034-.009a1.397 1.397 0 0 1-.31-.128l-.03-.019a1.373 1.373 0 0 1-.107-.071l-.039-.028a1.348 1.348 0 0 1-.107-.094l-.018-.017a1.375 1.375 0 0 1-.103-.116l-.03-.041a1.389 1.389 0 0 1-.072-.107c-.007-.01-.014-.02-.02-.032-.028-.05-.054-.1-.076-.152l-.001-.004a1.6 1.6 0 0 1-.052-.152l-.01-.04a1.434 1.434 0 0 1-.025-.127l-.007-.042a1.394 1.394 0 0 1 1.383-1.556c.77 0 1.396.623 1.396 1.39zM41.453 31.51c.769 0 1.395.623 1.395 1.389s-.626 1.39-1.394 1.39h-.001a1.394 1.394 0 0 1-1.395-1.39v-.001c0-.055.005-.108.01-.161l.01-.063a1.354 1.354 0 0 1 .07-.263c.007-.017.012-.034.02-.05a1.406 1.406 0 0 1 1.285-.851zm-7.676-2.4c-.045.033-.09.063-.138.091l-.005.003a1.4 1.4 0 0 1-.321.134l-.028.007a1.56 1.56 0 0 1-.136.028l-.04.006a1.47 1.47 0 0 1-.163.01l-.006.001h-.007c-.054 0-.108-.005-.16-.01l-.049-.008a1.377 1.377 0 0 1-.121-.025l-.045-.011a1.433 1.433 0 0 1-.141-.048l-.015-.006a1.427 1.427 0 0 1-.143-.07l-.05-.03a1.414 1.414 0 0 1-.083-.055l-.057-.042a1.488 1.488 0 0 1-.214-.213l-.045-.06a1.375 1.375 0 0 1 .004-1.628l.038-.05a1.397 1.397 0 0 1 .22-.22l.05-.036c.03-.022.061-.043.094-.063.013-.008.026-.017.04-.024.048-.027.097-.052.148-.073l.004-.001c.05-.02.1-.038.152-.052l.04-.01a1.1 1.1 0 0 1 .127-.026l.044-.007a1.411 1.411 0 0 1 .338 0l.038.006c.047.007.094.016.14.028l.025.007a1.421 1.421 0 0 1 .468.231l.01.008c.09.07.173.15.245.242l.022.029a1.376 1.376 0 0 1 .004 1.65l-.028.037a1.41 1.41 0 0 1-.24.237l-.016.012zm-10.735 3.626c.002-.02.006-.039.009-.058a1.324 1.324 0 0 1 .077-.282c.004-.01.007-.022.012-.032a1.41 1.41 0 0 1 1.287-.854 1.396 1.396 0 0 1 1.285.851c.007.015.011.03.017.046a1.338 1.338 0 0 1 .072.267l.01.063c.006.05.01.102.01.154v.008a1.394 1.394 0 1 1-2.78-.163zm1.385-2.6a2.77 2.77 0 0 0-1.98.83l-3.863-2.221a2.746 2.746 0 0 0 0-1.488l3.861-2.223a2.77 2.77 0 0 0 1.982.832 2.77 2.77 0 0 0 1.98-.832l3.862 2.223a2.745 2.745 0 0 0 0 1.488l-3.862 2.222a2.77 2.77 0 0 0-1.98-.831zm-7.678-1.025a1.419 1.419 0 0 1-.134.088l-.009.006c-.1.057-.207.102-.318.133l-.031.008c-.044.01-.088.02-.133.026l-.043.007c-.053.006-.106.01-.16.01l-.008.001h-.006c-.055 0-.109-.005-.162-.011l-.045-.007a1.374 1.374 0 0 1-.126-.025l-.04-.01a1.382 1.382 0 0 1-.153-.052l-.004-.002c-.05-.02-.1-.046-.147-.073-.014-.007-.027-.016-.04-.024a1.4 1.4 0 0 1-.095-.062l-.049-.037a1.414 1.414 0 0 1-.22-.217l-.04-.056a1.385 1.385 0 0 1 .003-1.631 1.36 1.36 0 0 1 .125-.149l.04-.038a.94.94 0 0 1 .095-.083c.014-.012.029-.022.044-.033.032-.024.065-.046.1-.067l.035-.021c.097-.055.2-.097.307-.128l.038-.01c.042-.01.085-.018.129-.025l.042-.007a1.38 1.38 0 0 1 .339 0l.038.006c.047.007.094.017.14.028l.025.007c.113.032.222.077.323.135h.001c.05.03.097.061.143.096l.012.009c.09.069.171.15.243.24.009.01.017.022.026.034a1.4 1.4 0 0 1 .274.824 1.374 1.374 0 0 1-.27.819l-.032.042a1.35 1.35 0 0 1-.238.234l-.02.015zm7.678-7.398c.768 0 1.394.623 1.394 1.39v.007c0 .053-.004.106-.01.158l-.007.044a1.38 1.38 0 0 1-.026.127l-.01.037a1.396 1.396 0 0 1-2.72-.167l-.005-.04a1.394 1.394 0 0 1 1.384-1.557zm18.42 1.39a1.394 1.394 0 0 1-2.771.209l-.007-.043a1.394 1.394 0 0 1 1.383-1.556c.77 0 1.396.623 1.396 1.39zm-1.393-8.407h-.001c-.577 0-1.073-.35-1.285-.85l-.006-.016a1.383 1.383 0 0 1-.093-.361c-.001-.007-.003-.013-.003-.02a1.176 1.176 0 0 1-.005-.085l-.003-.057c0-.056.005-.11.01-.163l.01-.062a1.312 1.312 0 0 1 .07-.262c.007-.018.012-.035.02-.052.02-.048.043-.095.07-.14l.023-.04a1.82 1.82 0 0 1 .069-.102c.01-.014.021-.03.032-.043.032-.04.064-.077.1-.112l.023-.023a1.387 1.387 0 0 1 .25-.19l.031-.02c.097-.054.201-.097.31-.128l.034-.009c.044-.01.088-.02.133-.026.013-.002.026-.005.04-.006a1.376 1.376 0 0 1 .34 0l.034.005c.05.007.098.017.145.03l.02.005a1.41 1.41 0 0 1 .727.483l.02.026a1.384 1.384 0 0 1 .278.83c0 .764-.625 1.387-1.393 1.388zM32.94 7.019a1.393 1.393 0 0 1 1.383 1.554l-.007.048c-.006.04-.014.079-.023.118l-.013.047c-.014.05-.03.1-.05.15l-.002.001a1.27 1.27 0 0 1-.08.161l-.002.004a1.38 1.38 0 0 1-.102.151v.001c-.187.24-.447.413-.736.494l-.016.004c-.049.013-.1.023-.15.03l-.03.005a1.373 1.373 0 0 1-.344 0l-.035-.006a1.404 1.404 0 0 1-.139-.027l-.03-.008a1.394 1.394 0 0 1-.314-.13l-.022-.014c-.04-.024-.08-.05-.118-.08l-.029-.02a1.386 1.386 0 0 1-.238-.238l-.017-.022a1.377 1.377 0 0 1-.282-.834 1.396 1.396 0 0 1 1.396-1.39zm-5.842 5.544l3.86-2.223.013.013.045.044.05.048.06.052.04.035.088.07.015.011a2.769 2.769 0 0 0 3.652-.273l3.86 2.223-.004.018c-.03.11-.053.221-.07.336l-.004.039a2.7 2.7 0 0 0-.014.134l-.004.046a2.76 2.76 0 0 0-.006.17v.001c0 .073.004.144.01.216l.003.037c.006.068.015.136.026.202l.007.039c.012.068.026.135.044.201 0 .005.002.009.003.013.017.064.037.127.059.19l.01.03a2.773 2.773 0 0 0 .18.398l.01.018c.032.056.065.111.1.165l.014.021c.037.055.076.108.117.16l.023.03c.041.051.084.101.128.15l.019.019c.044.047.09.093.137.137l.013.011c.049.045.1.088.153.13l.028.022c.052.04.106.078.161.115l.025.016c.057.037.115.072.175.104l.003.002c.06.033.123.063.186.092l.03.013c.062.027.124.052.188.074l.03.01c.067.023.134.044.203.061v4.442h-.002a2.757 2.757 0 0 0-.198.06l-.035.012a2.8 2.8 0 0 0-.184.073l-.034.015a2.826 2.826 0 0 0-.182.09l-.008.004a2.847 2.847 0 0 0-.17.103 2.78 2.78 0 0 0-.187.131l-.03.023a2.858 2.858 0 0 0-.152.128l-.013.014a2.838 2.838 0 0 0-.137.134l-.019.02a2.88 2.88 0 0 0-.128.15l-.024.03a2.59 2.59 0 0 0-.115.16l-.015.022a2.683 2.683 0 0 0-.1.163l-.01.02a2.76 2.76 0 0 0-.09.177l-.016.036a2.66 2.66 0 0 0-.074.184l-.01.03a2.76 2.76 0 0 0-.058.19l-.004.013a2.775 2.775 0 0 0-.044.202l-.007.038a2.72 2.72 0 0 0-.026.202l-.003.038a2.789 2.789 0 0 0-.003.388l.003.042c.003.047.008.095.014.141l.004.03c.017.12.042.238.074.352v.004l-3.862 2.224-.002-.002a2.77 2.77 0 0 0-3.422-.424l-.03.02-.078.05a2.769 2.769 0 0 0-.429.355l-3.86-2.223v-.002c.032-.115.057-.233.074-.353l.004-.032a2.94 2.94 0 0 0 .014-.137l.004-.047a2.73 2.73 0 0 0 .006-.158v-.019c0-.069-.004-.137-.01-.206l-.003-.043a2.735 2.735 0 0 0-.025-.197l-.008-.044a2.733 2.733 0 0 0-.043-.197l-.006-.02a2.68 2.68 0 0 0-.055-.18l-.012-.036a2.744 2.744 0 0 0-.073-.18l-.018-.04a2.76 2.76 0 0 0-.087-.175l-.014-.024a2.757 2.757 0 0 0-.096-.157l-.017-.026a2.764 2.764 0 0 0-.114-.157l-.026-.033a2.78 2.78 0 0 0-.126-.147l-.022-.023a2.796 2.796 0 0 0-.132-.13 2.812 2.812 0 0 0-.356-.28c-.01-.008-.02-.014-.03-.02a2.778 2.778 0 0 0-.166-.1l-.01-.006a2.79 2.79 0 0 0-.181-.089l-.036-.016a2.895 2.895 0 0 0-.183-.072l-.036-.013a2.778 2.778 0 0 0-.2-.06v-4.441c.07-.018.137-.039.203-.061l.03-.01c.064-.023.127-.048.188-.074l.03-.014c.063-.029.126-.059.186-.091l.003-.002a2.77 2.77 0 0 0 .175-.105l.025-.016c.055-.037.109-.075.161-.115l.029-.023a2.78 2.78 0 0 0 .153-.129l.012-.011a2.81 2.81 0 0 0 .138-.137l.018-.02a2.718 2.718 0 0 0 .268-.338l.015-.023a4.37 4.37 0 0 0 .099-.162l.011-.02c.032-.058.061-.117.089-.177l.017-.038c.026-.06.05-.12.073-.182l.011-.033c.021-.06.04-.122.057-.185l.005-.017a2.708 2.708 0 0 0 .077-.439l.003-.042a2.84 2.84 0 0 0 .009-.207v-.019c0-.053-.003-.105-.006-.156l-.004-.051a2.915 2.915 0 0 0-.013-.13l-.005-.04a2.76 2.76 0 0 0-.07-.338l-.004-.016zm-2.671-.646a1.396 1.396 0 0 1 1.285.85l.019.052c.012.032.024.065.033.098a1.404 1.404 0 0 1 .037.163l.01.065c.006.05.01.101.01.153v.009a1.393 1.393 0 0 1-1.395 1.39 1.395 1.395 0 0 1-1.384-1.554c.002-.02.006-.039.01-.058a1.316 1.316 0 0 1 .074-.277l.014-.038a1.396 1.396 0 0 1 1.287-.853zm-7.119-3.509a1.376 1.376 0 0 1-.288.842c0 .002-.002.004-.003.005a1.41 1.41 0 0 1-.901.527l-.03.005a1.375 1.375 0 0 1-.345 0l-.034-.005a1.383 1.383 0 0 1-.14-.029l-.028-.007a1.397 1.397 0 0 1-.317-.132l-.016-.01a1.421 1.421 0 0 1-.126-.084l-.023-.016c-.09-.07-.17-.15-.241-.241l-.015-.02a1.375 1.375 0 0 1-.093-.138l-.004-.008a1.41 1.41 0 0 1-.08-.159l-.002-.007a1.365 1.365 0 0 1-.05-.144l-.012-.05a1.4 1.4 0 0 1-.023-.115l-.008-.05a1.393 1.393 0 0 1 1.383-1.554c.77.001 1.396.624 1.396 1.39zM6.003 13.307a1.376 1.376 0 0 1 .27-.818l.036-.048a1.38 1.38 0 0 1 .224-.223l.043-.031a1.39 1.39 0 0 1 .102-.068l.034-.02c.097-.056.2-.098.308-.129l.035-.009a1.41 1.41 0 0 1 .133-.027l.04-.005a1.396 1.396 0 0 1 .341 0l.035.005c.048.007.096.017.143.029l.022.006c.17.047.33.126.472.232l.008.007c.092.07.174.151.247.243l.02.028c.028.035.053.073.076.111l.025.04c.024.043.045.086.065.13.01.023.017.046.025.069a1.336 1.336 0 0 1 .067.25 1.407 1.407 0 0 1 .02.219v.009l-.002.054c-.001.028-.002.057-.005.085-.001.017-.005.033-.007.05-.004.03-.008.059-.014.088-.002.014-.007.027-.01.04a.904.904 0 0 1-.024.093c-.003.012-.008.023-.013.035-.01.031-.02.062-.033.092-.006.013-.013.025-.018.038l-.04.083-.034.056c-.012.02-.023.04-.036.058a1.412 1.412 0 0 1-.383.382l-.063.038c-.017.01-.034.021-.052.03-.03.016-.06.03-.09.044l-.03.014a1.374 1.374 0 0 1-.105.038l-.024.009c-.036.011-.073.02-.11.028l-.023.006c-.04.008-.08.014-.121.019l-.017.002a1.414 1.414 0 0 1-.142.007h-.001a1.394 1.394 0 0 1-1.394-1.39zm1.395 11.185a1.394 1.394 0 0 1-1.395-1.39c0-.765.626-1.389 1.395-1.389.77 0 1.396.623 1.396 1.39v.006c0 .053-.004.106-.01.159l-.007.042a1.375 1.375 0 0 1-.026.13l-.008.033a1.366 1.366 0 0 1-.358.611 1.391 1.391 0 0 1-.987.408zm2.749-1.01c0-.005 0-.01.002-.015a2.551 2.551 0 0 0 .024-.353v-.018c0-.07-.004-.138-.009-.206l-.003-.043a2.795 2.795 0 0 0-.026-.197l-.008-.044a2.73 2.73 0 0 0-.043-.197l-.005-.02a2.68 2.68 0 0 0-.056-.181l-.012-.036a2.71 2.71 0 0 0-.178-.394l-.014-.025a2.766 2.766 0 0 0-.096-.156l-.017-.027a2.751 2.751 0 0 0-.114-.156l-.026-.034a2.803 2.803 0 0 0-.126-.146l-.023-.024a2.795 2.795 0 0 0-.131-.13l-.017-.017a2.728 2.728 0 0 0-.15-.126l-.032-.025a2.84 2.84 0 0 0-.158-.113l-.03-.02a2.693 2.693 0 0 0-.166-.099l-.01-.006a2.817 2.817 0 0 0-.182-.089l-.035-.016a2.832 2.832 0 0 0-.184-.072l-.036-.012a2.741 2.741 0 0 0-.197-.06h-.002v-4.441c.366-.093.708-.26 1.01-.494l.01-.009c.057-.044.112-.09.165-.139l.006-.005a2.92 2.92 0 0 0 .08-.077c.024-.022.045-.046.067-.07l.012-.011c.048-.052.094-.106.138-.162l.009-.01c.28-.357.467-.772.546-1.215l.004-.028a2.34 2.34 0 0 0 .027-.207l.003-.033c.005-.07.009-.14.009-.212v-.019c0-.052-.003-.104-.006-.156a2.892 2.892 0 0 0-.017-.178l-.005-.046a2.777 2.777 0 0 0-.03-.167c0-.003 0-.006-.002-.01a2.793 2.793 0 0 0-.037-.152l-.005-.022 3.86-2.222.009.008.067.065.029.027.088.078.01.01a2.77 2.77 0 0 0 3.76-.188l3.86 2.223c0 .003 0 .007-.002.01a2.73 2.73 0 0 0-.072.346l-.004.032a2.81 2.81 0 0 0-.014.14l-.004.043a2.759 2.759 0 0 0 .003.388l.004.037c.006.069.015.136.026.203l.007.038c.012.068.026.135.044.202 0 .004.002.007.003.011.017.065.037.129.059.192l.01.03c.023.062.047.124.074.184l.016.034c.028.061.058.121.09.18l.01.017c.032.057.066.112.101.166l.013.02c.037.056.076.109.117.161l.023.03c.041.05.084.1.129.15l.018.018c.044.047.09.093.138.137l.012.011a2.793 2.793 0 0 0 .343.267l.025.016a2.794 2.794 0 0 0 .364.198l.03.014c.061.027.124.051.187.074l.031.01c.066.023.134.043.202.06v4.443h-.001a2.794 2.794 0 0 0-.198.06l-.036.012a2.767 2.767 0 0 0-.183.072l-.036.016a2.748 2.748 0 0 0-.18.09l-.01.005a2.804 2.804 0 0 0-.167.1l-.03.019a2.74 2.74 0 0 0-.158.113l-.032.025c-.051.04-.101.082-.15.127l-.015.014c-.047.043-.09.087-.134.133l-.021.022a2.821 2.821 0 0 0-.267.338l-.015.023a2.756 2.756 0 0 0-.098.162c-.004.007-.009.013-.012.02a2.74 2.74 0 0 0-.18.397l-.01.032a2.678 2.678 0 0 0-.058.188l-.004.014a2.778 2.778 0 0 0-.077.442l-.003.037a2.808 2.808 0 0 0-.003.389l.003.04.015.147.003.023c.017.122.042.242.075.358l-3.862 2.224-.005-.005a2.77 2.77 0 0 0-1.962-.825h-.013c-.576 0-1.112.176-1.555.476l-.068.049-.037.026a2.79 2.79 0 0 0-.321.279l-3.86-2.223c.033-.118.058-.239.075-.362zM6.003 32.9c0-.766.626-1.39 1.395-1.39a1.391 1.391 0 0 1 1.29.858l.006.014c.018.044.033.09.046.135.006.02.01.04.015.061.008.034.015.067.02.101l.01.06c.005.05.009.101.009.153v.008a1.394 1.394 0 0 1-1.396 1.39h-.001a1.394 1.394 0 0 1-1.394-1.39zm1.395 8.407l.064.003c.025.001.05.001.076.004l.056.008c.027.004.055.007.082.013.014.002.028.007.042.01.031.007.063.014.093.024.01.002.019.007.028.01.034.011.068.023.1.036l.021.01c.035.015.069.031.102.049l.02.012c.033.018.064.037.095.057l.035.026c.024.018.05.035.073.054a1.423 1.423 0 0 1 .264.288l.007.009c.05.073.092.151.128.233v.003c.017.037.03.075.043.114l.005.014c.01.034.019.07.027.104l.007.03c.007.03.01.06.014.09.003.017.006.032.007.048.003.027.003.054.005.081l.002.059v.007c0 .053-.004.106-.01.158l-.007.047c-.007.04-.015.081-.025.121l-.011.045a1.378 1.378 0 0 1-.048.139l-.006.017c-.021.05-.046.099-.073.147-.006.012-.014.023-.021.035-.024.039-.05.077-.077.113l-.02.027a1.405 1.405 0 0 1-.247.244l-.008.006a1.432 1.432 0 0 1-.471.233l-.022.005a1.358 1.358 0 0 1-.144.03l-.034.005a1.375 1.375 0 0 1-.342 0l-.04-.006a1.417 1.417 0 0 1-.132-.027l-.035-.009a1.405 1.405 0 0 1-.309-.128l-.033-.02a1.407 1.407 0 0 1-.103-.069l-.042-.03a1.442 1.442 0 0 1-.1-.088l-.032-.031a1.344 1.344 0 0 1-.093-.105l-.035-.047a1.377 1.377 0 0 1-.27-.82c0-.765.625-1.388 1.394-1.388zm8.515 7.675c-.743 0-1.35-.582-1.39-1.312-.002-.025-.004-.05-.004-.075 0-.056.004-.11.01-.163l.01-.064a1.335 1.335 0 0 1 .068-.255c.007-.02.013-.04.021-.059.02-.046.044-.093.07-.138l.026-.044c.02-.032.042-.064.064-.095l.037-.05a1.411 1.411 0 0 1 .222-.22l.047-.034a1.38 1.38 0 0 1 .097-.065l.038-.023a1.37 1.37 0 0 1 .149-.073h.002c.05-.022.102-.038.154-.053l.039-.01c.042-.011.085-.02.128-.026l.043-.007a1.384 1.384 0 0 1 .339 0l.038.006c.047.007.093.016.139.028l.026.007c.113.032.22.077.322.135l.004.002c.048.028.094.06.14.093l.014.01c.09.07.17.15.241.239.01.011.018.023.027.035a1.376 1.376 0 0 1 .274.824c0 .764-.626 1.387-1.395 1.387zm5.842-5.543l-3.862 2.222-.006-.005-.09-.088c-.002 0-.002-.002-.003-.002a2.767 2.767 0 0 0-1.867-.735h-.014a2.764 2.764 0 0 0-1.642.538l-.017.013a2.772 2.772 0 0 0-.322.28l-3.86-2.223c0-.003 0-.007.002-.01.03-.112.055-.227.072-.344l.004-.037c.006-.044.01-.089.014-.134l.004-.048a2.75 2.75 0 0 0 .005-.158V42.69c0-.07-.003-.141-.009-.21l-.002-.034a2.763 2.763 0 0 0-.032-.235 2.74 2.74 0 0 0-.77-1.47 2.764 2.764 0 0 0-1.272-.722v-4.441c.068-.018.136-.039.202-.061l.031-.01c.064-.023.126-.048.188-.074l.03-.014c.063-.029.125-.059.185-.091l.004-.002c.06-.033.118-.068.175-.105l.025-.016c.055-.037.109-.075.161-.115l.029-.023a2.32 2.32 0 0 0 .153-.129l.013-.012a2.78 2.78 0 0 0 .137-.136l.019-.02a2.816 2.816 0 0 0 .268-.338l.014-.023c.035-.053.068-.107.099-.162l.012-.02a2.671 2.671 0 0 0 .179-.397l.011-.033c.021-.06.04-.122.057-.185l.005-.017c.017-.065.03-.132.043-.199l.008-.042c.01-.065.02-.132.026-.199 0-.014.002-.027.003-.041.005-.069.008-.138.009-.207v-.018c0-.053-.003-.106-.006-.158l-.003-.045a2.818 2.818 0 0 0-.015-.146l-.003-.022a2.757 2.757 0 0 0-.075-.361l3.86-2.22c.132.132.276.251.43.355l.057.036c.018.011.034.023.052.033a2.761 2.761 0 0 0 1.585.401 2.768 2.768 0 0 0 1.734-.727l.03-.029.063-.06.011-.01 3.862 2.222-.003.009a2.735 2.735 0 0 0-.072.347l-.004.03a2.747 2.747 0 0 0-.014.573l.003.037a2.748 2.748 0 0 0 .077.442c0 .005.002.009.003.014.017.063.037.126.059.188l.01.032a2.709 2.709 0 0 0 .18.397l.011.02c.031.055.064.11.099.162l.015.023a2.739 2.739 0 0 0 .267.338c.006.008.013.014.02.021.044.047.089.091.135.135l.014.013a2.768 2.768 0 0 0 .342.265l.027.018c.056.036.113.07.17.102l.008.004c.06.033.12.062.182.09l.034.015c.06.027.122.051.185.073l.033.012c.066.022.133.042.2.06v4.442h-.001a2.768 2.768 0 0 0-.195.06l-.04.012a2.698 2.698 0 0 0-.18.072l-.039.017c-.06.028-.12.056-.178.088l-.014.008c-.055.03-.108.063-.161.096l-.034.022a2.83 2.83 0 0 0-.337.263l-.02.018a2.796 2.796 0 0 0-.128.127l-.024.026a2.72 2.72 0 0 0-.265.335l-.018.028a2.703 2.703 0 0 0-.095.156l-.014.024a2.6 2.6 0 0 0-.088.175l-.017.039c-.027.06-.051.12-.073.181l-.012.034c-.02.06-.04.123-.057.185l-.004.016a2.759 2.759 0 0 0-.044.2l-.007.04a2.72 2.72 0 0 0-.026.202l-.003.037a2.752 2.752 0 0 0 .015.576l.003.023a2.713 2.713 0 0 0 .074.359zm2.672.647a1.396 1.396 0 0 1-1.343-1.017l-.008-.033a1.42 1.42 0 0 1-.027-.134c-.002-.013-.005-.025-.006-.038a1.394 1.394 0 0 1 1.384-1.557c.768 0 1.394.623 1.394 1.39v.006c0 .053-.004.106-.01.16l-.007.043a1.371 1.371 0 0 1-.026.127l-.01.038a1.397 1.397 0 0 1-.052.152l-.001.005a1.396 1.396 0 0 1-1.288.858zm2.672-.652c.032-.114.056-.231.073-.351l.004-.033c.006-.045.01-.09.014-.137l.004-.047c.003-.052.005-.105.006-.158v-.019c0-.069-.004-.137-.01-.205a2.775 2.775 0 0 0-.029-.24l-.007-.046a2.733 2.733 0 0 0-.043-.195l-.006-.022a2.815 2.815 0 0 0-.055-.178l-.012-.038a2.821 2.821 0 0 0-.072-.178l-.02-.043a2.746 2.746 0 0 0-.086-.172l-.015-.027a2.797 2.797 0 0 0-.094-.153l-.018-.03a2.816 2.816 0 0 0-.265-.334l-.025-.026a2.846 2.846 0 0 0-.127-.126l-.02-.02a2.835 2.835 0 0 0-.147-.123l-.036-.029a2.746 2.746 0 0 0-.154-.11l-.035-.022a2.779 2.779 0 0 0-.16-.095l-.015-.01a2.78 2.78 0 0 0-.177-.086l-.04-.019a2.71 2.71 0 0 0-.18-.07l-.04-.014a2.694 2.694 0 0 0-.193-.058h-.003v-4.443h.001a2.66 2.66 0 0 0 .198-.06l.036-.012c.062-.022.123-.046.183-.072l.035-.016c.062-.028.123-.057.182-.09l.008-.004a3.62 3.62 0 0 0 .17-.101l.027-.018a2.832 2.832 0 0 0 .341-.266l.015-.014c.046-.043.09-.087.134-.133l.021-.022c.044-.047.086-.097.127-.147l.025-.032a2.73 2.73 0 0 0 .114-.158l.017-.025c.034-.052.066-.105.096-.16.005-.007.01-.014.013-.022a2.781 2.781 0 0 0 .179-.395l.012-.035c.02-.06.04-.12.056-.182l.005-.019c.017-.065.03-.13.043-.197l.008-.044c.01-.065.02-.13.026-.197 0-.015.002-.03.003-.044.005-.068.009-.136.009-.205v-.02c0-.052-.003-.104-.006-.156l-.004-.05a2.999 2.999 0 0 0-.013-.132l-.005-.038a2.708 2.708 0 0 0-.071-.34l-.003-.014 3.86-2.221c.163.165.346.309.544.428l.057.033.055.031a2.762 2.762 0 0 0 1.467.334 2.768 2.768 0 0 0 1.738-.73l.008-.008.085-.082.007-.007 3.863 2.222-.004.015a2.7 2.7 0 0 0-.07.338l-.005.039c-.006.044-.01.089-.014.134l-.003.046a2.84 2.84 0 0 0-.006.17v.001c0 .073.003.145.009.216l.003.037c.006.068.015.136.026.203l.007.037c.012.069.027.136.044.203l.003.01c.017.066.038.13.06.193l.01.029a2.73 2.73 0 0 0 .18.4l.008.014c.032.058.067.114.103.17l.012.018a2.765 2.765 0 0 0 .27.341l.015.016c.046.049.093.096.142.141l.009.009c.05.045.102.089.156.13l.025.021c.053.04.108.08.164.117l.022.014c.058.038.117.074.178.107h.001c.061.033.124.064.187.092l.029.014c.062.027.124.051.188.074l.03.01c.067.023.134.043.203.061v4.442h-.003c-.066.018-.13.038-.193.06l-.041.013c-.06.021-.12.045-.18.07l-.04.019c-.06.027-.119.055-.176.087l-.016.009a2.69 2.69 0 0 0-.16.095c-.01.008-.022.015-.034.022a2.783 2.783 0 0 0-.154.11l-.036.029c-.05.04-.1.08-.147.123l-.02.02c-.044.04-.086.083-.127.126l-.026.026a2.77 2.77 0 0 0-.264.335l-.018.029c-.033.05-.065.102-.094.154l-.015.026a2.54 2.54 0 0 0-.087.173l-.019.041c-.026.059-.05.119-.072.18l-.012.035c-.02.06-.04.121-.056.183l-.005.018a2.782 2.782 0 0 0-.077.44l-.003.039a2.812 2.812 0 0 0-.003.388l.003.04c.004.049.009.097.015.145l.004.027c.016.12.041.238.073.352l.001.006-3.862 2.223-.006-.006a2.77 2.77 0 0 0-3.507-.363l-.017.011a2.78 2.78 0 0 0-.431.357l-3.861-2.222a.03.03 0 0 1 0-.005zm4.446 4.16a1.376 1.376 0 0 1 .269-.817l.038-.05a1.35 1.35 0 0 1 .22-.218l.051-.039.09-.06.044-.026c.047-.027.096-.051.146-.072l.008-.003c.049-.02.098-.036.149-.05l.04-.011a1.37 1.37 0 0 1 .127-.025l.044-.007a1.39 1.39 0 0 1 .338 0l.039.006c.046.007.092.016.137.028l.028.007c.112.031.22.076.32.134a1.38 1.38 0 0 1 .143.095l.016.011c.09.07.171.15.242.24l.024.031c.026.035.05.071.073.108l.024.039c.026.046.05.093.07.14.007.017.012.035.02.053a1.322 1.322 0 0 1 .07.261l.009.063c.006.053.01.107.01.162 0 .026-.003.05-.004.076a1.392 1.392 0 0 1-1.39 1.312 1.392 1.392 0 0 1-1.395-1.387z" fill="#000"></path>
</svg>