<svg width="38" height="38" viewBox="0 0 54 58" xmlns="http://www.w3.org/2000/svg">
    <path d="M6.943 56.777a.664.664 0 0 1-.884.307.66.66 0 0 1-.307-.881L9.4 48.665a.665.665 0 0 1 .882-.308.661.661 0 0 1 .309.881l-3.647 7.54zM5.23 32.963l.001-.002a.67.67 0 0 1 .467-.192h23.04a.66.66 0 1 1 0 1.32H6.357v5.2h21.718v-4.186a.661.661 0 0 1 1.322 0v4.846a.66.66 0 0 1-.66.66H5.697a.659.659 0 0 1-.467-.193.66.66 0 0 1-.193-.467v-6.52c0-.175.072-.343.193-.466z" fill="#000" stroke="#000" stroke-width=".3"></path>
    <path d="M33.527 31.436a.668.668 0 0 1 .193.467v9.582a.663.663 0 0 1-.66.66h-4.323a.653.653 0 0 1-.466-.193.654.654 0 0 1-.195-.467v-9.582a.664.664 0 0 1 .661-.66h4.323c.173 0 .343.069.467.193zm-4.13 1.127v8.262H32.4v-8.263h-3.001zm-9.564 7.651l-7.29 16.54a.657.657 0 0 1-.605.395H2.524a.658.658 0 0 1-.605-.926l7.297-16.54a.662.662 0 0 1 .604-.395h9.407a.662.662 0 0 1 .605.926zm-1.618.394h-7.962L3.538 55.83h7.968l6.709-15.22zm7.881-.764a.658.658 0 0 0-.652-.556h-2.398a.66.66 0 0 0-.653.763v.001l1.078 6.76 2.625-6.968zm0 0l1.077 6.76v.001a.655.655 0 0 1-.15.532.658.658 0 0 1-.503.232h-2.397m1.973-7.525l-1.973 7.525m0 0a.658.658 0 0 1-.652-.557l.652.557zm.564-1.321h1.058l-.866-5.44H23.82l.867 5.44zM6.165 33.927a.662.662 0 0 1 .194.467v4.6a.66.66 0 0 1-.66.66H1.51a.658.658 0 0 1-.66-.66v-4.6a.664.664 0 0 1 .66-.66h4.187a.66.66 0 0 1 .467.193zm-3.992 1.127v3.28h2.864v-3.28H2.173z" fill="#000" stroke="#000" stroke-width=".3"></path>
    <path d="M44.698 37.349H33.06a.661.661 0 0 1 0-1.32h11.638a.661.661 0 0 1 0 1.32zm3.665-10.219c-.772.002-1.492.432-1.987 1.157-.462.675-.713 1.553-.714 2.474 0 .92.252 1.798.714 2.472.125.184.266.35.42.497a2.994 2.994 0 0 0-.42.494c-.462.672-.713 1.548-.714 2.465 0 .92.252 1.8.713 2.473l1.988-12.032zm0 0h4.439a.66.66 0 0 1 .66.66v17.797a.66.66 0 0 1-.66.66h-4.439c-.77 0-1.492-.43-1.987-1.154-.462-.672-.713-1.548-.714-2.464 0-.92.252-1.799.714-2.474.125-.184.267-.35.42-.496m1.567-12.529l-1.566 12.53m0 0a3.052 3.052 0 0 1-.422-.497l.422.497zm2.034-.466a.662.662 0 0 1 0 .932.664.664 0 0 1-.468.193h-.003c-.3 0-.62.19-.895.585-.304.438-.483 1.067-.482 1.726-.001.653.178 1.278.482 1.716.275.394.596.583.895.583h3.78V28.45h-3.78c-.3 0-.62.19-.895.585-.304.438-.483 1.067-.482 1.725v.001c-.001.658.178 1.286.482 1.724.275.395.596.585.895.585h.003a.662.662 0 0 1 .66.66.668.668 0 0 1-.192.466l-.001.002a.67.67 0 0 1-.467.192h-.003c-.3 0-.62.188-.895.582-.304.438-.483 1.063-.482 1.717-.001.658.178 1.287.482 1.726.275.395.596.585.895.585h.003c.173 0 .344.068.468.193zm0 0l-.107.106.106-.106zm-31.159-9.001l7.976-2.139a.657.657 0 0 0 .396-.975l-5.493-9.203a.664.664 0 0 0-.906-.23.66.66 0 0 0-.229.905l5.046 8.454-6.65 1.784L3.053 4.05 9.7 2.275l7.096 11.888a.663.663 0 0 0 .91.236l-.034 15.794zm0 0a.663.663 0 0 1-.738-.299L1.468 3.976a.654.654 0 0 1-.044-.587.663.663 0 0 1 .44-.389L9.843.871a.671.671 0 0 1 .738.3m7.092 29.022L10.58 1.17m7.45 12.66h-.15m.15 0l-1.1.264a.513.513 0 0 0 .7.178.512.512 0 0 0 .25-.442m.15 0h-.15m.15 0L9.88 1.016a.521.521 0 0 1 .57.232l7.356 12.322c.047.08.072.169.072.26M10.58 1.17l7.356 12.322L10.58 1.171zm8.434 15.419a.66.66 0 0 1-.906-.23.66.66 0 0 1 1.136-.676.661.661 0 0 1-.23.906z" fill="#000" stroke="#000" stroke-width=".3"></path>
    <path d="M25.938 30.59l-.437.828.04.145h-.001l-4.221 1.132a.655.655 0 0 1-.17.023h-.002a.663.663 0 0 1-.569-.326l-1.767-3.001a.661.661 0 0 1 .398-.972l4.218-1.13.039.144-.039-.145a.667.667 0 0 1 .74.302l1.771 3zm-5.548-1.122l1.072 1.822 2.897-.776-1.075-1.822-2.894.776z" fill="#000" stroke="#000" stroke-width=".3"></path>
    <path d="M25.063 34.068h-.003a.71.71 0 0 1-.164.021H23.41a.663.663 0 0 1-.57-.325l-1.009-1.714a.657.657 0 0 1 .399-.972l1.715-.457a.669.669 0 0 1 .739.3l1.22 2.057a.661.661 0 0 1-.402.974v.001l-.439.115zm-1.651-1.94l.376.641h.455l-.441-.744-.39.104zm-6.192-9.207a.664.664 0 0 1-.902-.242L8.863 9.792a.66.66 0 0 1 .241-.9v-.001a.663.663 0 0 1 .903.241l7.454 12.885a.66.66 0 0 1-.241.902z" fill="#000" stroke="#000" stroke-width=".3"></path>
</svg>