<svg width="42" height="42" viewBox="0 0 51 56" xmlns="http://www.w3.org/2000/svg">
    <path d="M43.616 17.224a5.26 5.26 0 0 0 4.018-.532 5.265 5.265 0 0 0 2.467-3.22 5.32 5.32 0 0 0-.523-4.044 5.248 5.248 0 0 0-3.213-2.484 5.272 5.272 0 0 0-4.037.534 5.305 5.305 0 0 0-1.693 7.652l-8.524 8.496a6.924 6.924 0 0 0-3.077-1.349l.198-5.726a4.262 4.262 0 0 0 3.327-3.083c.6-2.253-.751-4.58-3.012-5.19a4.228 4.228 0 0 0-5.168 2.992v.002c-.605 2.267.731 4.603 2.98 5.208.02.006.04.01.061.014l-.197 5.715a6.839 6.839 0 0 0-2.053.527L17.257 9.35a5.24 5.24 0 0 0 1.681-2.66 5.265 5.265 0 0 0-.529-4.019A5.292 5.292 0 0 0 15.171.182c-2.818-.759-5.727.923-6.485 3.752-.755 2.827.925 5.743 3.743 6.5a5.256 5.256 0 0 0 3.265-.163l7.916 13.388a6.847 6.847 0 0 0-2.265 3.195l-6.467-1.32a4.256 4.256 0 0 0-3.151-4.034 4.225 4.225 0 0 0-5.17 2.99c-.604 2.267.73 4.603 2.975 5.206a4.215 4.215 0 0 0 3.224-.425 4.23 4.23 0 0 0 1.759-1.957l6.473 1.321A6.944 6.944 0 0 0 22 32.749L8.797 43.516A5.304 5.304 0 0 0 6.7 42.39c-2.834-.763-5.76.93-6.52 3.772l-.001.001c-.753 2.827.94 5.745 3.772 6.507a5.255 5.255 0 0 0 4.016-.532 5.26 5.26 0 0 0 2.464-3.214 6.012 6.012 0 0 0 .197-1.328 5.632 5.632 0 0 0-.693-2.667l13.21-10.773a6.794 6.794 0 0 0 3.3 1.741l-.554 7.02a4.241 4.241 0 0 0-3.516 3.106 4.073 4.073 0 0 0-.135 1.221 4.27 4.27 0 0 0 3.14 3.991c.36.097.723.142 1.08.142a4.257 4.257 0 0 0 4.095-3.16 4.25 4.25 0 0 0-.424-3.24 4.173 4.173 0 0 0-2.432-1.932l.552-7.003a6.908 6.908 0 0 0 2.949-.845l8.598 11.79a5.333 5.333 0 0 0-1.315 2.328 5.288 5.288 0 0 0 .531 4.026 5.251 5.251 0 0 0 3.213 2.473 5.29 5.29 0 0 0 4.033-.525 5.25 5.25 0 0 0 2.477-3.218 5.308 5.308 0 0 0-.533-4.049 5.29 5.29 0 0 0-3.228-2.487 5.243 5.243 0 0 0-3.716.38l-8.598-11.79a6.935 6.935 0 0 0 2.03-3.763l6.558.325c.084.49.254.968.51 1.412a4.227 4.227 0 0 0 3.661 2.128 4.26 4.26 0 0 0 4.095-3.16c.29-1.09.14-2.23-.425-3.21a4.189 4.189 0 0 0-2.56-1.97 4.216 4.216 0 0 0-3.233.425 4.184 4.184 0 0 0-1.963 2.56l-6.549-.324a6.915 6.915 0 0 0-1.4-3.631l8.526-8.498a5.302 5.302 0 0 0 1.704.804zm.89 30.067a3.49 3.49 0 0 1 2.128 1.64c.47.816.595 1.764.352 2.67a3.447 3.447 0 0 1-1.627 2.114 3.494 3.494 0 0 1-2.664.345 3.452 3.452 0 0 1-2.111-1.626 3.48 3.48 0 0 1-.35-2.647 3.516 3.516 0 0 1 3.38-2.614c.294 0 .594.038.892.118zm-2.908-36.106a3.487 3.487 0 0 1 1.636-2.133 3.476 3.476 0 0 1 2.661-.352c.896.24 1.646.82 2.11 1.632a3.51 3.51 0 0 1 .345 2.669 3.462 3.462 0 0 1-1.622 2.117 3.451 3.451 0 0 1-2.642.351 3.501 3.501 0 0 1-1.572-.909l-.01-.011-.015-.014a3.5 3.5 0 0 1-.89-3.35zm-15.468.556a2.413 2.413 0 0 1 2.948-1.707c1.296.35 2.072 1.68 1.73 2.964a2.44 2.44 0 0 1-2.98 1.727c-1.283-.345-2.045-1.684-1.698-2.984zM12.899 8.678a3.49 3.49 0 1 1 .902-6.861c.297 0 .6.04.901.12A3.491 3.491 0 0 1 16.84 3.58c.465.807.59 1.744.349 2.639a3.447 3.447 0 0 1-1.591 2.092l-.006.003-.01.006-.01.007a3.485 3.485 0 0 1-2.672.351zm-1.05 19.02a2.409 2.409 0 0 1-1.847.244c-1.28-.345-2.04-1.683-1.695-2.983a2.413 2.413 0 0 1 2.95-1.704 2.431 2.431 0 0 1 1.766 2.797l-.008.03-.004.032a2.43 2.43 0 0 1-1.161 1.583zm-3.167 20.75a3.461 3.461 0 0 1-1.622 2.117 3.444 3.444 0 0 1-2.64.35c-1.868-.501-2.985-2.422-2.49-4.282a3.514 3.514 0 0 1 4.3-2.488c.68.184 1.296.582 1.784 1.152l.013.018c.004.004.008.007.011.012a3.83 3.83 0 0 1 .777 2.251 4.185 4.185 0 0 1-.133.87zm19.88-2.561a2.44 2.44 0 0 1 .243 1.86c-.348 1.3-1.675 2.077-2.956 1.734a2.444 2.444 0 0 1-1.798-2.287v-.016a2.26 2.26 0 0 1 .075-.685 2.423 2.423 0 0 1 2.518-1.791l.015.001a.922.922 0 0 0 .068.005c.122.002.252.022.384.058a2.378 2.378 0 0 1 1.45 1.12zm-1.05-11.662l-.026-.004h-.005a6.903 6.903 0 0 1-.928-.162 5.059 5.059 0 0 1-2.63-1.728l-.003-.004a5.119 5.119 0 0 1-.964-4.55 5.065 5.065 0 0 1 2.375-3.095 5.054 5.054 0 0 1 2.73-.683h.007l.01.001a5.097 5.097 0 0 1 3.415 1.5c.005.003.008.008.012.012l.02.017c.298.305.56.65.78 1.028a5.067 5.067 0 0 1 .517 3.872 5.134 5.134 0 0 1-5.31 3.796zm15.574-4.883a2.38 2.38 0 0 1 1.118-1.455 2.42 2.42 0 0 1 1.857-.244c.62.166 1.138.566 1.46 1.125.323.56.41 1.21.244 1.83-.35 1.298-1.676 2.076-2.957 1.732a2.426 2.426 0 0 1-1.479-1.139 2.42 2.42 0 0 1-.243-1.848v-.001z" fill="#000"></path>
</svg>