<svg width="42" height="42" viewBox="0 0 56 37" xmlns="http://www.w3.org/2000/svg">
    <path d="M19.405 10.395c-.248-2.12-.943-3.784-2.134-4.945-1.092-1.11-2.68-1.716-4.715-1.716-2.829 0-4.913 1.11-6.352 3.33-1.44 2.221-2.184 5.754-2.184 10.547l.05 1.868c.496-2.019 1.637-3.634 3.424-4.845 1.787-1.16 3.871-1.766 6.303-1.766 3.474 0 6.203 1.06 8.139 3.18 1.985 2.119 2.978 5.096 2.978 8.88 0 2.22-.447 4.24-1.29 6.006-.844 1.816-2.184 3.23-3.921 4.289-1.787 1.06-3.97 1.615-6.601 1.615-5.013 0-8.437-1.615-10.273-4.794C.943 28.864 0 24.524 0 19.024c0-6.307.993-11.101 3.027-14.23C5.013 1.564 8.288 0 12.804 0c3.325 0 5.906.959 7.693 2.876 1.836 1.918 2.878 4.441 3.226 7.52h-4.318zM4.565 24.172c0 2.472.696 4.49 2.135 6.156 1.39 1.665 3.474 2.523 6.303 2.523 2.332 0 4.169-.706 5.558-2.12 1.39-1.362 2.085-3.33 2.085-5.853 0-2.725-.695-4.794-2.085-6.257-1.39-1.413-3.325-2.12-5.757-2.12-1.39 0-2.73.303-3.97.858-1.24.555-2.283 1.464-3.077 2.574-.794 1.16-1.191 2.573-1.191 4.239zM54.059 4.525H36.093v11.91c.844-1.161 2.035-2.07 3.573-2.726 1.539-.656 3.276-1.01 5.112-1.01 2.482 0 4.566.506 6.154 1.565 1.638 1.06 2.879 2.473 3.673 4.189.744 1.766 1.141 3.683 1.141 5.803 0 3.684-.992 6.66-3.027 8.982-2.035 2.322-4.963 3.482-8.884 3.482-3.523 0-6.352-.959-8.586-2.927-2.233-1.917-3.474-4.49-3.722-7.77h4.467c.347 2.068 1.24 3.683 2.58 4.843 1.34 1.212 3.028 1.767 5.063 1.767 2.53 0 4.466-.757 5.757-2.322 1.29-1.564 1.935-3.582 1.935-6.106 0-2.472-.645-4.39-1.985-5.752-1.34-1.363-3.176-2.07-5.608-2.07-1.737 0-3.226.354-4.516 1.11a7.531 7.531 0 0 0-2.928 3.08h-4.368V.436H54.06v4.088z" fill="#000"></path>
</svg>