<svg width="38" height="38" viewBox="0 0 31 57" xmlns="http://www.w3.org/2000/svg">
    <path d="M30.4 5.075l-2.8-1.2c-.3-.1-.6-.1-.8 0l-1.5.8v-2.4c0-.4-.2-.7-.6-.9l-2.9-1.3c-.3-.1-.6-.1-.9 0L.5 10.375c-.3.2-.5.5-.5.9v37.9c0 .4.3.8.7.9l20.3 6.7h.6l3.1-1c.4-.1.7-.5.7-1v-.6l1.6.5c.2.1.4.1.6 0l2.7-.6c.4-.1.7-.5.7-1v-47.1c0-.4-.3-.7-.6-.9zm-9.7 49.6l-18.8-6.2v-36.6l18.8-9.5v52.3zm2.7-1.7s-.1 0 0 0v1.3l-1.6.5v-52.6l1.5.7v50.1h.1zm3.3-.2l-2.1-.7h-.3v-44.9c.1 0 .3 0 .4-.1l1.9-.9v46.6h.1zm2.3-.4l-1.3.4v-46.7l1.3.6v45.7z" fill="#000"></path>
</svg>