<svg width="42" height="42" viewBox="0 0 40 56" xmlns="http://www.w3.org/2000/svg">
    <path d="M4.201 14.97c-7.106 12.07-1.273 21.73.674 24.4C2.493 43.753.658 48.57.017 53.63a2.105 2.105 0 0 0 4.177.53c2.274-17.965 22.11-33.488 22.31-33.643a2.104 2.104 0 1 0-2.572-3.333c-.579.445-9.795 7.652-16.673 18.198-1.835-3.147-4.369-9.887.57-18.277 3.076-5.227 7.865-6.058 13.412-7.021 4.07-.705 8.582-1.489 12.637-4.227 1.3 6.227 3.295 20.168-2.674 28.375-2.977 4.093-7.704 6.272-14.05 6.473a2.106 2.106 0 0 0 .066 4.208h.067c7.72-.244 13.548-3.007 17.33-8.212 9.022-12.423 2.818-34.26 2.55-35.184A2.104 2.104 0 0 0 33.664.61C29.928 4.305 25.36 5.098 20.52 5.937 14.496 6.98 8.266 8.06 4.201 14.969z" fill="#000"></path>
</svg>