<svg width="42" height="42" viewBox="0 0 57 56" xmlns="http://www.w3.org/2000/svg">
    <path d="M43.321 4.816a.875.875 0 1 0 0-1.75.875.875 0 0 0 0 1.75zm9.187 7.438a.875.875 0 1 0 0-1.75.875.875 0 0 0 0 1.75zM3.512 45.5a.875.875 0 1 0 0-1.749.875.875 0 0 0 0 1.75zm7.874 7a.875.875 0 1 0 0-1.749.875.875 0 0 0 0 1.75zm40.466-8.53a.875.875 0 1 0 0-1.75.875.875 0 0 0 0 1.75zm-7.438 9.186a.875.875 0 1 0 0-1.75.875.875 0 0 0 0 1.75zM11.167 4.16a.875.875 0 1 0 0-1.75.875.875 0 0 0 0 1.75zm-6.999 7.875a.875.875 0 1 0 0-1.75.875.875 0 0 0 0 1.75zM31.51 30.19a3.92 3.92 0 0 0 3.936 3.936 3.92 3.92 0 0 0 3.938-3.937 3.92 3.92 0 0 0-3.938-3.937 3.92 3.92 0 0 0-3.937 3.937zm3.936-2.188c1.225 0 2.188.962 2.188 2.187a2.166 2.166 0 0 1-2.188 2.188 2.166 2.166 0 0 1-2.187-2.188c0-1.225.963-2.187 2.188-2.187zm-12.248-.437a3.043 3.043 0 0 0 3.062-3.062 3.043 3.043 0 0 0-3.063-3.063 3.043 3.043 0 0 0-3.062 3.063 3.043 3.043 0 0 0 3.063 3.062zm0-4.375a1.29 1.29 0 0 1 1.312 1.313 1.29 1.29 0 0 1-1.313 1.312 1.289 1.289 0 0 1-1.312-1.312 1.29 1.29 0 0 1 1.313-1.313zm8.749-.437a2.633 2.633 0 0 0 2.625-2.625 2.633 2.633 0 0 0-2.625-2.625 2.633 2.633 0 0 0-2.625 2.625 2.632 2.632 0 0 0 2.625 2.625zm0-3.5c.481 0 .875.393.875.875a.877.877 0 0 1-.875.875.878.878 0 0 1-.875-.875c0-.482.394-.875.875-.875zM21.448 35.44a3.51 3.51 0 0 0 3.5 3.499 3.51 3.51 0 0 0 3.5-3.5 3.51 3.51 0 0 0-3.5-3.5 3.51 3.51 0 0 0-3.5 3.5zm5.25 0c0 .962-.788 1.75-1.75 1.75-.963 0-1.75-.788-1.75-1.75 0-.963.787-1.75 1.75-1.75.962 0 1.75.787 1.75 1.75z" fill="#000"></path>
    <path d="M50.014 28.877a3.06 3.06 0 0 0 5.862-1.75 3.06 3.06 0 0 0-3.806-2.056 3.033 3.033 0 0 0-2.056 2.056h-5.818c-.087-1.487-.35-2.975-.875-4.418l8.05-3.15c.918 1.137 2.58 1.312 3.674.394 1.138-.919 1.313-2.581.394-3.675-.919-1.137-2.581-1.312-3.675-.394-.612.481-.962 1.225-.962 2.056l-8.093 3.15a16.284 16.284 0 0 0-2.581-3.893l2.45-2.45c1.4.437 2.887-.306 3.324-1.663.438-1.356-.306-2.887-1.662-3.324-1.4-.438-2.888.306-3.325 1.662-.262.744-.131 1.575.263 2.231l-2.275 2.275c-1.4-1.269-3.063-2.275-4.813-2.975l2.363-6.824c1.706-.088 3.018-1.488 2.93-3.194-.087-1.706-1.486-3.018-3.193-2.93-1.706.087-3.018 1.487-2.93 3.193a3.044 3.044 0 0 0 1.487 2.493l-2.406 6.737c-1.138-.306-2.275-.525-3.456-.569V5.998a3.06 3.06 0 1 0-1.75 0v5.819c-1.488.087-2.975.35-4.375.83l-2.187-5.424a3.056 3.056 0 0 0 .481-4.287 3.04 3.04 0 0 0-3.543-.919 3.08 3.08 0 0 0-1.707 3.981c.482 1.138 1.575 1.925 2.844 1.925h.306l2.188 5.425c-1.575.744-3.02 1.706-4.288 2.93l-2.624-2.624c.7-1.269.218-2.887-1.05-3.543-1.27-.7-2.888-.22-3.544 1.05-.7 1.268-.219 2.887 1.05 3.543a2.6 2.6 0 0 0 2.275.131l2.712 2.713c-1.006 1.18-1.837 2.537-2.493 3.98l-6.65-2.274a2.633 2.633 0 0 0-2.625-2.625 2.633 2.633 0 0 0-2.625 2.625 2.632 2.632 0 0 0 2.625 2.625 2.61 2.61 0 0 0 2.056-1.007l6.606 2.275c-.394 1.313-.656 2.625-.7 3.981H6.005a3.06 3.06 0 0 0-5.862 1.75 3.06 3.06 0 0 0 3.806 2.056 3.033 3.033 0 0 0 2.056-2.056h5.818c.088 1.356.307 2.669.7 3.937l-7.83 3.063a2.637 2.637 0 0 0-3.675-.482 2.637 2.637 0 0 0-.481 3.675 2.637 2.637 0 0 0 3.674.481 2.78 2.78 0 0 0 1.05-2.012l7.919-3.062c.7 1.575 1.618 3.062 2.8 4.33l-2.626 2.625c-1.268-.7-2.887-.218-3.543 1.05-.7 1.269-.219 2.888 1.05 3.544 1.269.7 2.887.218 3.543-1.05a2.6 2.6 0 0 0 .132-2.275l2.712-2.712a16.715 16.715 0 0 0 4.33 2.8l-2.58 7.087h-.175a3.043 3.043 0 0 0-3.062 3.062A3.043 3.043 0 0 0 18.823 56a3.043 3.043 0 0 0 3.062-3.062c0-.963-.437-1.881-1.225-2.45l2.494-7.043c1.268.393 2.625.656 3.98.7v5.818a3.06 3.06 0 0 0 1.75 5.862 3.06 3.06 0 0 0 2.057-3.806 3.033 3.033 0 0 0-2.056-2.056v-5.818c1.487-.088 2.974-.35 4.374-.832l2.188 5.425a3.056 3.056 0 0 0-.482 4.287 3.04 3.04 0 0 0 3.544.919 3.08 3.08 0 0 0 1.706-3.981c-.481-1.138-1.575-1.925-2.844-1.925h-.306l-2.187-5.424a16.531 16.531 0 0 0 3.63-2.32l2.45 2.45c-.437 1.4.307 2.888 1.663 3.325 1.356.438 2.887-.306 3.325-1.662.437-1.4-.306-2.887-1.663-3.325-.743-.262-1.574-.13-2.23.263l-2.275-2.275a16.785 16.785 0 0 0 3.456-5.512l7.13 2.45v.131a2.633 2.633 0 0 0 2.625 2.625 2.633 2.633 0 0 0 2.625-2.625 2.632 2.632 0 0 0-2.625-2.625c-.744 0-1.444.306-1.968.875l-7.306-2.45c.262-1.006.393-2.012.481-3.062h5.818zm3.369-11.812c.481 0 .875.394.875.875a.877.877 0 0 1-.875.875.877.877 0 0 1-.875-.875c0-.48.394-.875.875-.875zm-10.893-4.55a.922.922 0 0 1 1.006.613h-.175c-.394 0-.744-.262-.831-.612zm-6.168-10.76a1.29 1.29 0 0 1 1.312 1.312 1.29 1.29 0 0 1-1.312 1.313 1.289 1.289 0 0 1-1.313-1.313 1.29 1.29 0 0 1 1.313-1.312zm-18.855 3.63c-.263-.7.044-1.444.7-1.706a1.305 1.305 0 0 1 1.706.744c.262.656-.044 1.443-.744 1.706-.175.043-.306.087-.481.087a1.28 1.28 0 0 1-1.181-.831zM3.905 20.128a.877.877 0 0 1-.875-.875c0-.482.394-.875.875-.875s.875.393.875.875a.877.877 0 0 1-.875.875zM2.637 38.326a.877.877 0 0 1-.875-.875c0-.48.393-.875.875-.875.48 0 .875.394.875.875a.877.877 0 0 1-.875.875zM18.823 54.25a1.289 1.289 0 0 1-1.313-1.312c0-.744.57-1.313 1.313-1.313.744 0 1.312.569 1.312 1.313 0 .7-.568 1.312-1.312 1.312zm19.73-3.63c.262.655-.044 1.443-.744 1.705-.656.263-1.444-.044-1.706-.743-.263-.7.044-1.444.744-1.706.175-.044.306-.088.48-.088.57 0 1.05.35 1.226.831zm14.392-15.312c.482 0 .875.394.875.875a.877.877 0 0 1-.875.875.878.878 0 0 1-.875-.875c0-.481.394-.875.875-.875zm0-8.618c.744 0 1.313.568 1.313 1.312a1.29 1.29 0 0 1-1.313 1.313 1.289 1.289 0 0 1-1.312-1.313c0-.744.569-1.312 1.312-1.312zM26.697 3.066a1.29 1.29 0 0 1 1.313-1.312 1.29 1.29 0 0 1 1.312 1.312 1.29 1.29 0 0 1-1.312 1.313 1.289 1.289 0 0 1-1.313-1.313zm1.313 10.5c7.962 0 14.436 6.474 14.436 14.436S35.972 42.438 28.01 42.438s-14.437-6.474-14.437-14.436 6.475-14.436 14.437-14.436zm-16.93-1.182c0-.48.393-.875.875-.875.48 0 .875.394.875.875a.877.877 0 0 1-.875.875.877.877 0 0 1-.875-.875zm-8.006 16.93a1.289 1.289 0 0 1-1.312-1.312c0-.744.568-1.312 1.312-1.312.744 0 1.312.568 1.312 1.312 0 .7-.568 1.313-1.312 1.313zm9.012 15.312a.878.878 0 0 1-.875-.875c0-.481.394-.875.875-.875s.875.394.875.875a.877.877 0 0 1-.875.875zm17.236 8.312a1.29 1.29 0 0 1-1.312 1.312 1.289 1.289 0 0 1-1.313-1.312 1.29 1.29 0 0 1 1.313-1.313 1.29 1.29 0 0 1 1.312 1.313zm14.13-10.193c.482 0 .875.393.875.875a.878.878 0 0 1-.875.875.877.877 0 0 1-.875-.875c0-.482.394-.875.875-.875z" fill="#000"></path>
</svg>