<svg width="42" height="42" viewBox="0 0 56 56" xmlns="http://www.w3.org/2000/svg">
    <path d="M16.78 22.395c0 6.149 5.03 11.179 11.178 11.179 6.148 0 11.179-5.03 11.179-11.179 0-6.148-5.03-11.178-11.179-11.178-6.148 0-11.178 5.03-11.178 11.178zm11.178-9.315c5.124 0 9.316 4.192 9.316 9.315 0 5.124-4.192 9.316-9.316 9.316-5.123 0-9.315-4.192-9.315-9.316 0-5.123 4.192-9.315 9.315-9.315zm-3.726-3.726h7.452c.56 0 .932-.373.932-.932 0-.186 0-.28-.093-.466L28.797.504c-.28-.466-.839-.652-1.305-.373-.093.093-.279.187-.372.373l-3.726 7.452c-.187.466 0 1.025.372 1.211.187.187.28.187.466.187zm3.726-6.335l2.236 4.471h-4.471l2.235-4.47zm3.726 32.418h-7.452c-.559 0-.931.372-.931.931 0 .186 0 .28.093.373l3.726 7.452c.186.466.745.652 1.21.373.187-.094.373-.28.373-.373l3.727-7.452c.186-.466 0-1.025-.373-1.211-.093-.093-.186-.093-.373-.093zm-3.726 6.334L25.723 37.3h4.47l-2.235 4.471zM5.601 22.395c0 .373.187.652.56.838l7.452 3.727c.465.186 1.024 0 1.21-.373.094-.186.094-.28.094-.466V18.67c0-.56-.373-.932-.932-.932-.186 0-.28 0-.372.094L6.16 21.556c-.372.186-.559.465-.559.838zm7.453-2.236v4.472l-4.472-2.236 4.472-2.236zm37.261 2.236c0-.372-.186-.652-.558-.838l-7.453-3.726c-.466-.186-1.025 0-1.21.372-.094.187-.094.28-.094.466v7.453c0 .558.373.931.931.931.187 0 .28 0 .373-.093l7.453-3.726c.372-.187.558-.466.558-.839zm-7.452 2.236V20.16l4.471 2.235-4.47 2.236zM42.49 6.652l-7.452 2.795c-.466.186-.745.745-.559 1.21.093.094.093.28.186.373l4.658 4.658c.186.186.373.28.652.28h.186c.28-.094.56-.28.652-.56l2.795-7.452c.186-.466-.093-1.025-.559-1.21-.093-.187-.28-.187-.559-.094zm-2.794 6.614l-2.609-2.608 4.192-1.584-1.583 4.192zM20.878 9.447l-7.452-2.795c-.466-.186-1.025.093-1.21.559a.796.796 0 0 0 0 .652l2.794 7.452c.093.28.372.56.652.56h.186c.28 0 .466-.094.652-.28l4.658-4.658a.9.9 0 0 0 0-1.304c-.093-.093-.186-.186-.28-.186zm-4.657 3.82l-1.584-4.193 4.192 1.584-2.608 2.608zm-2.795 24.872l7.452-2.795c.466-.186.746-.745.56-1.211-.094-.093-.094-.28-.187-.373l-4.658-4.657c-.186-.187-.558-.28-.838-.28-.28.093-.559.28-.652.56l-2.795 7.451c-.186.466.094 1.025.56 1.211.092 0 .186.094.372.094-.093.093 0 .093.186 0zm2.795-6.614l2.608 2.608-4.192 1.584 1.584-4.192zm26.642 6.706c.559 0 .931-.372.931-.931 0-.093 0-.187-.093-.373l-2.794-7.452c-.187-.466-.746-.745-1.211-.56-.094.094-.28.094-.373.187l-4.658 4.658a.9.9 0 0 0 0 1.304c.093.093.187.186.373.186l7.452 2.795c.186.186.28.186.373.186zm-5.776-4.099l2.608-2.608 1.584 4.192-4.192-1.584zM.757 53.975l1.304 1.677c.28.372.932.465 1.305.186.372-.28.465-.931.186-1.304l-1.304-1.677a1.817 1.817 0 0 1 0-2.142c1.024-1.305 1.024-3.168 0-4.379a1.817 1.817 0 0 1 0-2.142l1.304-1.677c.28-.373.28-1.025-.093-1.304-.373-.28-1.025-.28-1.304.093L.85 42.983c-1.024 1.304-1.024 3.167 0 4.378.466.652.466 1.49 0 2.143a3.514 3.514 0 0 0-.093 4.471zm12.11-11.458c.28-.373.28-1.025-.093-1.304-.373-.28-1.025-.28-1.304.093l-1.304 1.677c-1.025 1.304-1.025 3.167 0 4.378.466.652.466 1.49 0 2.143a3.502 3.502 0 0 0 0 4.378l1.304 1.677c.28.372.931.465 1.304.186.373-.28.466-.932.186-1.304l-1.304-1.677a1.817 1.817 0 0 1 0-2.143c1.025-1.304 1.025-3.167 0-4.378a1.817 1.817 0 0 1 0-2.142l1.211-1.584zm9.316 0c.28-.373.28-1.025-.093-1.304-.373-.28-1.025-.28-1.305.093l-1.304 1.677c-1.025 1.304-1.025 3.167 0 4.378.466.652.466 1.49 0 2.143a3.502 3.502 0 0 0 0 4.378l1.304 1.677c.28.372.932.465 1.305.186.372-.28.465-.932.186-1.304l-1.304-1.677a1.818 1.818 0 0 1 0-2.143c1.024-1.304 1.024-3.167 0-4.378a1.817 1.817 0 0 1 0-2.142l1.21-1.584zm14.904 0c.28-.373.28-1.025-.093-1.304-.372-.28-1.024-.28-1.304.093l-1.304 1.677c-1.025 1.304-1.025 3.167 0 4.378.466.652.466 1.49 0 2.143a3.502 3.502 0 0 0 0 4.378l1.304 1.677c.28.372.932.465 1.304.186.373-.28.466-.932.187-1.304l-1.305-1.677a1.817 1.817 0 0 1 0-2.143c1.025-1.304 1.025-3.167 0-4.378a1.817 1.817 0 0 1 0-2.142l1.211-1.584zm9.316 0c.28-.373.28-1.025-.093-1.304-.373-.28-1.025-.28-1.305.093l-1.304 1.677c-1.024 1.304-1.024 3.167 0 4.378.466.652.466 1.49 0 2.143a3.502 3.502 0 0 0 0 4.378l1.304 1.677c.28.372.932.465 1.305.186.372-.28.465-.932.186-1.304l-1.304-1.677a1.818 1.818 0 0 1 0-2.143c1.025-1.304 1.025-3.167 0-4.378a1.817 1.817 0 0 1 0-2.142l1.21-1.584zm6.52 11.458l1.305 1.677c.28.372.931.465 1.304.186.372-.28.466-.931.186-1.304l-1.304-1.677a1.817 1.817 0 0 1 0-2.142c1.025-1.305 1.025-3.168 0-4.379a1.817 1.817 0 0 1 0-2.142l1.304-1.677c.28-.373.28-1.025-.093-1.304-.373-.28-1.025-.28-1.304.093l-1.304 1.677c-1.025 1.304-1.025 3.167 0 4.378a1.82 1.82 0 0 1 0 2.143 3.514 3.514 0 0 0-.094 4.471z" fill="#000"></path>
</svg>