<svg width="42" height="42" viewBox="0 0 23 60" xmlns="http://www.w3.org/2000/svg">
    <path d="M8 60a8.009 8.009 0 0 0 8-8 8.5 8.5 0 0 0-3-6.488V5A5 5 0 0 0 3 5v40.512A8.5 8.5 0 0 0 0 52a8.009 8.009 0 0 0 8 8zM4.555 46.832l.445-.3V5a3 3 0 1 1 6 0v41.535l.445.3A6.48 6.48 0 0 1 14 52a6 6 0 1 1-12 0 6.454 6.454 0 0 1 2.555-5.168z" fill="#000"></path>
    <path d="M22 41h-6a1 1 0 0 0 0 2h6a1 1 0 0 0 0-2zm-6-2h4a1 1 0 0 0 0-2h-4a1 1 0 0 0 0 2zm6-6h-6a1 1 0 0 0 0 2h6a1 1 0 0 0 0-2zm-6-2h4a1 1 0 0 0 0-2h-4a1 1 0 0 0 0 2zm6-6h-6a1 1 0 0 0 0 2h6a1 1 0 0 0 0-2zm-6-2h4a1 1 0 0 0 0-2h-4a1 1 0 0 0 0 2zm6-6h-6a1 1 0 0 0 0 2h6a1 1 0 0 0 0-2zm-6-2h4a1 1 0 0 0 0-2h-4a1 1 0 0 0 0 2zm6-6h-6a1 1 0 1 0 0 2h6a1 1 0 0 0 0-2zM8 56a4.057 4.057 0 0 0 4-4.1 3.8 3.8 0 0 0-3-3.769V25a1 1 0 1 0-2 0v23.127A3.8 3.8 0 0 0 4 51.9 4.057 4.057 0 0 0 8 56zm0-6a1.886 1.886 0 0 1 2 1.9 2 2 0 1 1-3.85-.753A1.885 1.885 0 0 1 8 50z" fill="#000"></path>
</svg>