<svg width="38" height="38" viewBox="0 0 56 49" xmlns="http://www.w3.org/2000/svg">
    <path d="M37.617 0H.53C.231.057-.005.37 0 .674V47.71c0 .342.31.653.651.653h54.686c.341 0 .663-.31.663-.653V37.38c-.022-.563-.134-.659-.636-.775h-7.839v-7.84h7.63c.669-.055.731-.227.845-.775v-8.901c-.038-.615-.269-.69-.805-.776h-7.67v-8.37c-.047-.62-.246-.69-.794-.776h-8.32V.797c-.025-.57-.299-.69-.794-.797zM1.302 1.328H18.88v7.839H1.302v-7.84zm18.88 0h16.927v7.839H20.182v-7.84zm-18.88 9.145h8.463v7.84H1.302v-7.84zm9.766 0h16.926v7.84H11.068v-7.84zm18.228 0h16.927v7.84H29.296v-7.84zM1.302 19.62H18.88v7.84H1.302v-7.84zm18.88 0h16.927v7.84H20.182v-7.84zm18.229 0h16.275v7.84H38.411v-7.84zM1.302 28.765h8.463v7.84H1.302v-7.84zm9.766 0h16.926v7.84H11.068v-7.84zm18.228 0h16.927v7.84H29.296v-7.84zM1.302 37.911H18.88v9.146H1.302V37.91zm18.88 0h16.927v9.146H20.182V37.91zm18.229 0h16.275v9.146H38.411V37.91z" fill="#000"></path>
</svg>