<svg width="42" height="42" viewBox="0 0 56 45" xmlns="http://www.w3.org/2000/svg">
    <path d="M54 20.74L27.614 42.096l-15.096-9.45 2.27-3.62-10.983-.368 5.154 9.756 2.27-3.62 12.212 7.61H1.227A1.23 1.23 0 0 0 0 43.628a1.23 1.23 0 0 0 1.227 1.228H52.16a1.23 1.23 0 0 0 1.227-1.228 1.23 1.23 0 0 0-1.227-1.227H31.173l24.361-19.698c.552-.43.614-1.227.184-1.718-.43-.552-1.227-.675-1.718-.245z" fill="#000"></path>
    <path d="M28.534 33.259c5.155 0 9.327-4.05 9.327-9.082 0-4.48-7.363-21.538-8.161-23.44A1.212 1.212 0 0 0 28.595 0c-.49 0-.981.307-1.227.736-.859 1.903-8.161 18.962-8.161 23.441 0 5.032 4.172 9.082 9.327 9.082zm0-28.902c2.577 6.198 6.811 16.936 6.811 19.82 0 3.682-3.068 6.628-6.872 6.628-3.805 0-6.873-2.946-6.873-6.628.061-2.884 4.295-13.622 6.934-19.82z" fill="#000"></path>
</svg>