<svg width="38" height="38" viewBox="0 0 36 48" xmlns="http://www.w3.org/2000/svg">
    <path d="M34.286 37.714h-.857v-8.571c0-6.145-5-11.143-11.143-11.143H18a1.716 1.716 0 0 1-1.714-1.714v-6h.857c.945 0 1.714-.77 1.714-1.715V6.857c0-.945-.77-1.714-1.714-1.714h-.857V.857A.857.857 0 0 0 15.429 0h-12a.857.857 0 0 0-.858.857v4.286h-.857C.77 5.143 0 5.912 0 6.857v1.714c0 .946.77 1.715 1.714 1.715h.857V20.57c0 6.145 5 11.143 11.143 11.143H18c.945 0 1.714.77 1.714 1.715v4.285h-.857c-.945 0-1.714.77-1.714 1.715v1.714c0 .945.77 1.714 1.714 1.714h.857v4.286c0 .473.384.857.857.857h12a.857.857 0 0 0 .858-.857v-4.286h.857c.945 0 1.714-.769 1.714-1.714v-1.714c0-.946-.77-1.715-1.714-1.715zm-30-36H14.57v3.429H4.286V1.714zM1.714 6.857h15.429l-.003 1.714H1.714V6.857zM18 30h-4.286c-5.199 0-9.428-4.23-9.428-9.429V10.286H14.57v6A3.432 3.432 0 0 0 18 19.714h4.286c5.199 0 9.428 4.23 9.428 9.429v8.571H21.43V33.43A3.432 3.432 0 0 0 18 30zm13.714 16.286H21.43v-3.429h10.285v3.429zm2.57-5.143H18.856v-1.714h15.429l-.003 1.714z" fill="#000"></path>
</svg>