<svg width="38" height="38" viewBox="0 0 48 48" xmlns="http://www.w3.org/2000/svg">
    <path d="M47.415 48H.585A.585.585 0 0 1 0 47.415v-4.098a.585.585 0 0 1 .585-.585h46.83a.585.585 0 0 1 .585.585v4.098a.585.585 0 0 1-.585.585zM1.17 46.83h45.658v-2.927H1.171v2.927z" fill="#000"></path>
    <path d="M46.244 43.902H1.756a.585.585 0 0 1-.585-.585V.585A.585.585 0 0 1 1.756 0h44.488a.585.585 0 0 1 .585.585v42.732a.585.585 0 0 1-.585.585zm-43.902-1.17h43.317V1.17H2.342v41.56z" fill="#000"></path>
    <path d="M22.244 40.975H4.683a.585.585 0 0 1-.585-.585V3.512a.585.585 0 0 1 .585-.585h17.561a.585.585 0 0 1 .585.585V24c0 .155-.183-.402-.292-.293-.11.11-.138 0-.293 0-.155 0-.183.11-.293 0-.11-.11-.292.448-.292.293V4.097H5.269v35.708h16.39V24a.585.585 0 0 1 1.17 0v16.39a.585.585 0 0 1-.585.585zm21.073 0h-17.56a.585.585 0 0 1-.586-.585V3.512a.586.586 0 0 1 .585-.585h17.561a.585.585 0 0 1 .586.585V40.39a.586.586 0 0 1-.586.585zm-16.975-1.17h16.39V4.097h-16.39v35.708z" fill="#000"></path>
</svg>