<svg width="42" height="42" viewBox="0 0 64 64" xmlns="http://www.w3.org/2000/svg">
    <path d="M63.596 31.057l-3.907-3.908a1.303 1.303 0 0 0-1.887 0 1.303 1.303 0 0 0 0 1.887l1.617 1.616h-9.431c-.742 0-1.348.607-1.348 1.348 0 .74.606 1.347 1.347 1.347h9.432l-1.617 1.617a1.303 1.303 0 0 0 0 1.886c.27.27.607.405.943.405.337 0 .674-.135.944-.405l3.907-3.907a1.302 1.302 0 0 0 0-1.886zM44.733 20.615c.337 0 .673-.135.943-.404l6.67-6.67v2.29c0 .742.606 1.348 1.347 1.348.74 0 1.347-.606 1.347-1.347v-5.525a1.33 1.33 0 0 0-.404-.943 1.33 1.33 0 0 0-.943-.404h-5.525c-.74 0-1.347.606-1.347 1.347s.606 1.348 1.347 1.348h2.29l-6.669 6.67a1.302 1.302 0 0 0 0 1.886c.27.269.607.404.944.404zM29.036 6.198l1.617-1.617v9.432c0 .74.606 1.347 1.347 1.347s1.348-.606 1.348-1.347V4.58l1.617 1.617c.269.27.606.404.943.404.337 0 .673-.135.943-.404a1.303 1.303 0 0 0 0-1.886L32.944.404a1.302 1.302 0 0 0-1.887 0L27.15 4.312a1.303 1.303 0 0 0 0 1.886 1.302 1.302 0 0 0 1.886 0zM10.307 17.179c.741 0 1.348-.606 1.348-1.347V13.54l6.67 6.67c.269.269.605.404.942.404.337 0 .674-.135.944-.404a1.303 1.303 0 0 0 0-1.887l-6.67-6.67h2.29c.742 0 1.348-.606 1.348-1.347 0-.74-.606-1.347-1.347-1.347h-5.525c-.74 0-1.347.606-1.347 1.347v5.524c0 .742.606 1.348 1.347 1.348zM4.581 33.347h9.432c.74 0 1.347-.606 1.347-1.347s-.606-1.348-1.347-1.348H4.58l1.617-1.616a1.302 1.302 0 0 0 0-1.887 1.303 1.303 0 0 0-1.886 0L.404 31.057a1.302 1.302 0 0 0 0 1.886l3.908 3.907c.269.27.606.405.943.405.337 0 .673-.135.943-.405a1.302 1.302 0 0 0 0-1.886L4.58 33.347zM18.324 43.79l-6.67 6.67v-2.291a1.35 1.35 0 0 0-1.347-1.347c-.74 0-1.347.606-1.347 1.347v5.524c0 .741.606 1.348 1.347 1.348h5.524c.742 0 1.348-.607 1.348-1.348 0-.74-.606-1.347-1.347-1.347H13.54l6.67-6.67a1.303 1.303 0 0 0 0-1.886 1.302 1.302 0 0 0-1.887 0zm16.641 14.012l-1.617 1.617v-9.432c0-.741-.607-1.347-1.348-1.347-.74 0-1.347.606-1.347 1.347v9.432l-1.617-1.617a1.302 1.302 0 0 0-1.886 0 1.303 1.303 0 0 0 0 1.886l3.907 3.907c.27.27.607.405.943.405.337 0 .674-.135.944-.405l3.907-3.907a1.303 1.303 0 0 0 0-1.886 1.302 1.302 0 0 0-1.886 0zm18.728-10.98c-.741 0-1.348.606-1.348 1.347v2.29l-6.67-6.669a1.302 1.302 0 0 0-1.886 0 1.302 1.302 0 0 0 0 1.886l6.67 6.67h-2.29c-.742 0-1.348.606-1.348 1.347s.606 1.348 1.347 1.348h5.525c.337 0 .673-.135.943-.405.27-.27.404-.606.404-.943V48.17a1.35 1.35 0 0 0-1.347-1.347z" fill="#000"></path>
</svg>