<svg width="42" height="42" viewBox="0 0 56 54" xmlns="http://www.w3.org/2000/svg">
    <path d="M54.923 25.848h-3.23v-5.385a1.077 1.077 0 0 0-1.674-.896l-9.693 6.461a1.077 1.077 0 0 0-.001 1.793l9.693 6.461a1.082 1.082 0 0 0 1.106.054c.35-.187.568-.552.568-.95v-5.385h3.231a1.077 1.077 0 1 0 0-2.154zm-5.385 5.527l-6.674-4.45 6.674-4.45v8.9zM27.999 0c-.595 0-1.077.482-1.077 1.077v51.694a1.077 1.077 0 1 0 2.154 0V1.077C29.076.482 28.593 0 27.999 0zM16.153 26.925c0-.36-.18-.696-.479-.896l-9.693-6.462a1.075 1.075 0 0 0-1.673.896v5.385H1.077a1.077 1.077 0 0 0 0 2.154h3.23v5.385a1.077 1.077 0 0 0 1.674.896l9.693-6.462c.3-.2.48-.537.48-.896zm-9.692 4.45v-8.9l6.674 4.45-6.674 4.45z" fill="#000"></path>
    <path d="M35.538 26.924c0-10.42 6.31-25.274 6.374-25.423a1.077 1.077 0 0 0-1.978-.848c-.268.624-6.55 15.406-6.55 26.271 0 10.866 6.282 25.647 6.549 26.272a1.076 1.076 0 1 0 1.98-.848c-.064-.15-6.375-15.003-6.375-25.424zM14.651.087c-.546.234-.8.867-.566 1.415.064.148 6.375 15.002 6.375 25.422 0 10.421-6.31 25.275-6.375 25.423a1.075 1.075 0 0 0 .99 1.502c.418 0 .816-.245.99-.653.267-.625 6.549-15.406 6.549-26.272 0-10.865-6.282-25.646-6.549-26.271a1.076 1.076 0 0 0-1.414-.566z" fill="#000"></path>
</svg>